<svg width="271" height="244" viewBox="0 0 271 244" fill="none" xmlns="http://www.w3.org/2000/svg">
<g clip-path="url(#clip0_1_6638)">
<path d="M260.011 113.165L254.164 113.29L251.196 113.339C250.202 113.361 249.208 113.357 248.214 113.366H248.018V113.165L247.996 108.178V107.955H248.219L254.12 107.982C256.085 107.982 258.055 108.031 260.02 108.053H260.145V108.173C260.136 109.02 260.105 109.863 260.087 110.692L260.025 113.161L260.011 113.165ZM260.011 113.165L259.949 110.647C259.927 109.818 259.9 108.998 259.891 108.178L260.011 108.298C258.046 108.321 256.076 108.37 254.111 108.37L248.21 108.396L248.433 108.173L248.411 113.161L248.21 112.96C249.182 112.969 250.153 112.96 251.129 112.987L254.062 113.036L260.016 113.161L260.011 113.165Z" fill="#EBEBEB"/>
<path d="M253.425 119.448L247.578 119.573L244.61 119.622C243.616 119.644 242.622 119.64 241.629 119.649H241.432V119.448L241.41 114.461V114.238H241.633L247.534 114.265C249.499 114.265 251.469 114.314 253.434 114.336H253.559V114.457C253.55 115.303 253.519 116.146 253.501 116.975L253.439 119.444L253.425 119.448ZM253.425 119.448L253.363 116.93C253.341 116.101 253.314 115.281 253.305 114.461L253.425 114.581C251.46 114.604 249.49 114.653 247.525 114.653L241.624 114.68L241.847 114.457L241.825 119.444L241.624 119.243C242.596 119.252 243.567 119.243 244.543 119.27L247.476 119.319L253.43 119.444L253.425 119.448Z" fill="#EBEBEB"/>
<path d="M266.593 119.448L260.746 119.573L257.778 119.622C256.784 119.644 255.79 119.64 254.797 119.649H254.6V119.448L254.578 114.461V114.238H254.801L260.702 114.265C262.667 114.265 264.637 114.314 266.602 114.336H266.727V114.457C266.718 115.303 266.687 116.146 266.669 116.975L266.607 119.444L266.593 119.448ZM266.593 119.448L266.531 116.93C266.509 116.101 266.482 115.281 266.473 114.461L266.593 114.581C264.628 114.604 262.658 114.653 260.693 114.653L254.792 114.68L255.015 114.457L254.993 119.444L254.792 119.243C255.764 119.252 256.735 119.243 257.711 119.27L260.644 119.319L266.598 119.444L266.593 119.448Z" fill="#EBEBEB"/>
<path d="M127.387 53.8194L121.539 53.9442L118.571 53.9932C117.577 54.0155 116.583 54.011 115.59 54.02H115.394V53.8194L115.371 48.8323V48.6095H115.594L121.495 48.6362C123.46 48.6362 125.43 48.6853 127.395 48.7075H127.52V48.8279C127.511 49.6747 127.48 50.517 127.462 51.3459L127.4 53.815L127.387 53.8194ZM127.387 53.8194L127.324 51.3014C127.302 50.4724 127.275 49.6524 127.266 48.8323L127.387 48.9527C125.421 48.9749 123.451 49.024 121.486 49.024L115.585 49.0507L115.808 48.8279L115.786 53.815L115.585 53.6144C116.557 53.6233 117.528 53.6144 118.504 53.6411L121.437 53.6902L127.391 53.815L127.387 53.8194Z" fill="#EBEBEB"/>
<path d="M120.804 60.1083L114.957 60.2331L111.989 60.2822C110.995 60.3044 110.001 60.3 109.007 60.3089H108.811V60.1083L108.789 55.1213V54.8984H109.012L114.913 54.9252C116.878 54.9252 118.848 54.9742 120.813 54.9965H120.938V55.1168C120.929 55.9636 120.898 56.8059 120.88 57.6349L120.818 60.1039L120.804 60.1083ZM120.804 60.1083L120.742 57.5903C120.72 56.7613 120.693 55.9413 120.684 55.1213L120.804 55.2416C118.839 55.2639 116.869 55.3129 114.904 55.3129L109.003 55.3397L109.226 55.1168L109.204 60.1039L109.003 59.9033C109.975 59.9123 110.946 59.9033 111.922 59.9301L114.855 59.9791L120.809 60.1039L120.804 60.1083Z" fill="#EBEBEB"/>
<path d="M133.968 60.1083L128.121 60.2331L125.153 60.2822C124.159 60.3044 123.165 60.3 122.172 60.3089H121.975V60.1083L121.953 55.1213V54.8984H122.176L128.077 54.9252C130.042 54.9252 132.012 54.9742 133.977 54.9965H134.102V55.1168C134.093 55.9636 134.062 56.8059 134.044 57.6349L133.982 60.1039L133.968 60.1083ZM133.968 60.1083L133.906 57.5903C133.884 56.7613 133.857 55.9413 133.848 55.1213L133.968 55.2416C132.003 55.2639 130.033 55.3129 128.068 55.3129L122.167 55.3397L122.39 55.1168L122.368 60.1039L122.167 59.9033C123.139 59.9123 124.11 59.9033 125.086 59.9301L128.019 59.9791L133.973 60.1039L133.968 60.1083Z" fill="#EBEBEB"/>
<path d="M31.1599 86.8159L25.3126 86.9407L22.3445 86.9897C21.3506 87.012 20.3568 87.0076 19.3629 87.012H19.1668V86.8115L19.1445 81.8244V81.6016H19.3674L25.2681 81.6283C27.2335 81.6283 29.2034 81.6773 31.1688 81.6996H31.2936V81.8199C31.2846 82.6667 31.2534 83.509 31.2356 84.338L31.1732 86.807L31.1599 86.8159ZM31.1599 86.8159L31.0975 84.2979C31.0752 83.4689 31.0484 82.6489 31.0395 81.8289L31.1599 81.9492C29.1944 81.9715 27.2246 82.0205 25.2592 82.0205L19.3585 82.0472L19.5813 81.8244L19.559 86.8115L19.3585 86.6109C20.33 86.6198 21.3016 86.6109 22.2776 86.6377L25.2101 86.6867L31.1643 86.8115L31.1599 86.8159Z" fill="#EBEBEB"/>
<path d="M208.976 53.8154L203.129 53.9402L200.161 53.9892C199.167 54.0115 198.173 54.007 197.179 54.0159H196.983V53.8154L196.961 48.8283V48.6055H197.184L203.084 48.6322C205.05 48.6322 207.02 48.6812 208.985 48.7035H209.11V48.8239C209.101 49.6706 209.07 50.5129 209.052 51.3419L208.99 53.8109L208.976 53.8154ZM208.976 53.8154L208.914 51.2973C208.892 50.4684 208.865 49.6483 208.856 48.8283L208.976 48.9486C207.011 48.9709 205.041 49.0199 203.076 49.0199L197.175 49.0467L197.398 48.8239L197.375 53.8109L197.175 53.6104C198.146 53.6193 199.118 53.6104 200.094 53.6371L203.027 53.6861L208.981 53.8109L208.976 53.8154Z" fill="#EBEBEB"/>
<path d="M17.9919 5.38374L12.1447 5.50853L9.17649 5.55755C8.18264 5.57983 7.18879 5.57538 6.19494 5.58429H5.99885V5.38374L5.97656 0.396664V0.173828H6.1994L12.1001 0.200568C14.0655 0.200568 16.0354 0.249592 18.0008 0.271876H18.1256V0.392208C18.1167 1.23899 18.0855 2.08131 18.0677 2.91026L18.0053 5.37928L17.9919 5.38374ZM17.9919 5.38374L17.9295 2.86569C17.9072 2.03674 17.8805 1.2167 17.8716 0.396664L17.9919 0.516996C16.0265 0.539279 14.0566 0.588303 12.0912 0.588303L6.19049 0.615044L6.41332 0.392208L6.39104 5.37928L6.19049 5.17873C7.16205 5.18764 8.13362 5.17873 9.10964 5.20101L12.0422 5.25004L17.9963 5.37482L17.9919 5.38374Z" fill="#EBEBEB"/>
<path d="M211.217 49.4566C211.422 49.9111 211.342 50.4326 211.03 50.8203C210.945 50.9273 210.865 51.0342 210.784 51.1457C210.704 51.2571 210.628 51.3685 210.553 51.4844C210.285 51.9033 209.817 52.1484 209.323 52.0994L207.634 51.9345L207.09 57.4296L208.774 57.5945C209.269 57.6436 209.684 57.9734 209.866 58.4369C209.964 58.6909 210.08 58.9405 210.205 59.1856C210.432 59.6268 210.406 60.1527 210.116 60.5583L209.131 61.9309L213.623 65.1487L214.608 63.776C214.898 63.3749 215.388 63.1744 215.878 63.2501C216.15 63.2902 216.422 63.317 216.698 63.3303C217.193 63.3526 217.639 63.6423 217.844 64.0924L218.544 65.6345L223.575 63.3526L222.871 61.8017C222.666 61.3516 222.751 60.8301 223.058 60.4424C223.143 60.3354 223.223 60.2285 223.303 60.117C223.384 60.0056 223.459 59.8942 223.531 59.7783C223.798 59.3594 224.266 59.1143 224.765 59.1633L226.454 59.3327L226.998 53.8375L225.313 53.6726C224.819 53.6236 224.404 53.2983 224.221 52.8348C224.123 52.5807 224.008 52.3267 223.883 52.0816C223.655 51.6404 223.682 51.1145 223.972 50.7089L224.957 49.3362L220.464 46.1185L219.479 47.4911C219.19 47.8923 218.7 48.0928 218.209 48.017C217.937 47.9769 217.661 47.9502 217.389 47.9368C216.895 47.9145 216.449 47.6248 216.244 47.1747L215.549 45.6327L210.517 47.9145L211.217 49.4566ZM219.684 51.9523C221.717 53.4052 222.185 56.2352 220.727 58.2675C219.274 60.2998 216.444 60.7633 214.412 59.3059C212.38 57.853 211.916 55.0275 213.369 52.9952C214.822 50.9629 217.652 50.495 219.68 51.9479L219.684 51.9523Z" fill="#EBEBEB"/>
<path d="M11.8146 64.1954C11.6408 64.4985 11.311 64.6634 10.9589 64.6455C10.8653 64.6411 10.7672 64.6366 10.6736 64.6366C10.5801 64.6366 10.482 64.6366 10.3884 64.6455C10.0408 64.6634 9.71099 64.4985 9.53718 64.1954L8.94444 63.1659L5.59298 65.1001L6.18572 66.1296C6.35954 66.4327 6.34171 66.8026 6.15007 67.0923C6.04311 67.2527 5.94952 67.4176 5.86038 67.5914C5.7044 67.8989 5.39243 68.0995 5.0448 68.0995H3.85931V71.9679H5.0448C5.39243 71.9679 5.7044 72.1685 5.86038 72.476C5.94952 72.6498 6.04311 72.8147 6.15007 72.9751C6.34171 73.2648 6.35954 73.6392 6.18572 73.9378L5.59298 74.9673L8.94444 76.9015L9.54164 75.8676C9.71545 75.569 10.0452 75.4041 10.3929 75.4219C10.4865 75.4263 10.5845 75.4308 10.6781 75.4308C10.7717 75.4308 10.8697 75.4308 10.9633 75.4219C11.311 75.4041 11.6452 75.569 11.819 75.872L12.4118 76.9015L15.7632 74.9673L15.1705 73.9423C14.9967 73.6392 15.0145 73.2693 15.2017 72.9796C15.3086 72.8192 15.4022 72.6498 15.4914 72.4805C15.6473 72.1729 15.9638 71.9724 16.3069 71.9724H17.4924V68.1039H16.3069C15.9593 68.1039 15.6473 67.9034 15.4914 67.5959C15.4022 67.4221 15.3086 67.2572 15.2017 67.0967C15.01 66.807 14.9967 66.4327 15.1705 66.1341L15.7632 65.109L12.4118 63.1748L11.819 64.2043L11.8146 64.1954ZM13.8468 70.0337C13.8468 71.7852 12.4251 73.2024 10.6781 73.2024C8.93107 73.2024 7.50937 71.7807 7.50937 70.0337C7.50937 68.2867 8.92661 66.865 10.6781 66.865C12.4296 66.865 13.8468 68.2822 13.8468 70.0337Z" fill="#EBEBEB"/>
<path d="M199.625 32.389C199.412 32.6653 199.064 32.7901 198.721 32.7232C198.627 32.7054 198.534 32.692 198.44 32.6787C198.346 32.6653 198.248 32.6564 198.155 32.6475C197.807 32.6207 197.504 32.4113 197.37 32.0904L196.916 30.994L193.341 32.4781L193.796 33.5745C193.93 33.8953 193.863 34.2608 193.64 34.5282C193.515 34.6753 193.399 34.8268 193.288 34.9872C193.092 35.2725 192.758 35.4285 192.41 35.3839L191.233 35.2324L190.734 39.0696L191.911 39.2211C192.254 39.2657 192.539 39.5019 192.655 39.8317C192.718 40.0144 192.793 40.1927 192.878 40.3621C193.03 40.674 192.998 41.0439 192.789 41.3247L192.067 42.2695L195.142 44.6182L195.868 43.6689C196.078 43.3926 196.426 43.2723 196.769 43.3347C196.862 43.3525 196.956 43.3659 197.049 43.3793C197.143 43.3926 197.237 43.4015 197.335 43.4105C197.682 43.4372 197.99 43.6467 198.124 43.9675L198.578 45.0639L202.152 43.5798L201.698 42.4879C201.564 42.167 201.627 41.8016 201.854 41.5342C201.979 41.3871 202.094 41.2356 202.206 41.0751C202.402 40.7899 202.736 40.6295 203.084 40.674L204.26 40.8256L204.76 36.9883L203.583 36.8368C203.24 36.7922 202.955 36.556 202.839 36.2262C202.772 36.0435 202.701 35.8652 202.616 35.6914C202.464 35.3794 202.496 35.0095 202.71 34.7288L203.432 33.7884L200.356 31.4397L199.634 32.3801L199.625 32.389ZM200.887 38.4412C200.659 40.1749 199.068 41.4005 197.335 41.1776C195.601 40.9503 194.375 39.3593 194.603 37.6256C194.83 35.892 196.417 34.6664 198.155 34.8937C199.888 35.1209 201.114 36.7075 200.891 38.4457L200.887 38.4412Z" fill="#EBEBEB"/>
<path d="M0 147.906L33.8756 147.799L67.7511 147.759L135.502 147.684L203.249 147.759L237.124 147.799L271 147.906L237.124 148.018L203.249 148.054L135.502 148.129L67.7511 148.054L33.8756 148.013L0 147.906Z" fill="#263238"/>
<path d="M136.393 181.127C208.853 181.127 267.594 174.858 267.594 167.124C267.594 159.39 208.853 153.121 136.393 153.121C63.9323 153.121 5.19141 159.39 5.19141 167.124C5.19141 174.858 63.9323 181.127 136.393 181.127Z" fill="#EBEBEB"/>
<path d="M184.962 87.3125H74.6133V167.302H184.962V87.3125Z" fill="#EEBF17"/>
<path d="M113.601 79.0312H74.6133V87.3118H115.842L113.601 79.0312Z" fill="#EEBF17"/>
<g opacity="0.1">
<path d="M184.962 87.3125H74.6133V167.302H184.962V87.3125Z" fill="black"/>
<path d="M113.601 79.0312H74.6133V87.3118H115.842L113.601 79.0312Z" fill="black"/>
</g>
<path d="M183.323 76.6778C183.109 105.143 182.838 133.265 182.521 161.124C147.607 163.174 110.447 151.355 76.2461 157.804C76.46 129.338 76.7319 101.216 77.0483 73.3575C111.962 71.3074 149.122 83.1266 183.323 76.6778Z" fill="#EEBF17"/>
<path opacity="0.8" d="M183.323 76.6778C183.109 105.143 182.838 133.265 182.521 161.124C147.607 163.174 110.447 151.355 76.2461 157.804C76.46 129.338 76.7319 101.216 77.0483 73.3575C111.962 71.3074 149.122 83.1266 183.323 76.6778Z" fill="white"/>
<path d="M91.707 148.311C91.8897 132.868 92.0814 117.502 92.2864 102.197C93.1911 102.206 94.1003 102.224 95.0094 102.251C94.8 117.515 94.595 132.837 94.4078 148.231C93.5075 148.248 92.6073 148.28 91.707 148.315V148.311Z" fill="#DBDBDB"/>
<path d="M98.543 148.195C98.7435 132.873 98.9574 117.613 99.1758 102.402C100.089 102.442 100.999 102.491 101.912 102.545C101.689 117.725 101.471 132.944 101.262 148.226C100.352 148.209 99.4477 148.195 98.543 148.195Z" fill="#DBDBDB"/>
<path d="M105.422 148.355C105.64 133.13 105.863 117.955 106.095 102.82C107.013 102.887 107.927 102.958 108.845 103.034C108.608 118.147 108.377 133.291 108.158 148.484C107.245 148.435 106.331 148.39 105.422 148.355Z" fill="#DBDBDB"/>
<path d="M112.336 148.739C112.675 126.544 113.022 104.439 113.379 82.3691C114.297 82.4627 115.219 82.5563 116.142 82.6544C115.781 104.706 115.429 126.785 115.086 148.944C114.168 148.872 113.254 148.806 112.336 148.739Z" fill="#DBDBDB"/>
<path d="M119.281 149.301C119.633 127.191 119.99 105.144 120.355 83.1055C121.278 83.2035 122.196 83.306 123.118 83.4085C122.757 105.438 122.392 127.472 122.04 149.56C121.122 149.471 120.199 149.386 119.281 149.301Z" fill="#DBDBDB"/>
<path d="M126.242 149.978C126.603 127.922 126.964 105.901 127.33 83.8672C128.252 83.9697 129.17 84.0677 130.093 84.1658C129.732 106.204 129.366 128.225 129.005 150.268C128.083 150.17 127.165 150.072 126.242 149.978Z" fill="#DBDBDB"/>
<path d="M133.219 150.721C133.58 128.691 133.945 106.666 134.306 84.6055C135.224 84.6991 136.147 84.7927 137.065 84.8818C136.708 106.96 136.347 128.994 135.982 151.024C135.059 150.922 134.137 150.823 133.219 150.721Z" fill="#DBDBDB"/>
<path d="M140.191 151.483C140.552 129.445 140.913 107.388 141.261 85.2695C142.179 85.3498 143.097 85.4255 144.015 85.5013C143.672 107.651 143.316 129.73 142.955 151.777C142.032 151.679 141.114 151.581 140.191 151.483Z" fill="#DBDBDB"/>
<path d="M147.165 152.209C147.521 130.135 147.869 108.016 148.203 85.8086C149.117 85.871 150.03 85.9245 150.944 85.9735C150.619 108.226 150.271 130.376 149.919 152.472C149.001 152.388 148.078 152.298 147.16 152.205L147.165 152.209Z" fill="#DBDBDB"/>
<path d="M154.117 152.843C154.46 130.702 154.795 108.49 155.111 86.166C156.02 86.1972 156.929 86.224 157.839 86.2462C157.531 108.628 157.206 130.88 156.867 153.057C155.949 152.99 155.035 152.919 154.117 152.843Z" fill="#DBDBDB"/>
<path d="M161.055 153.339C161.385 131.1 161.697 108.767 161.991 86.2963C162.896 86.2963 163.801 86.2874 164.701 86.2695C164.42 108.812 164.117 131.202 163.792 153.486C162.878 153.441 161.969 153.397 161.051 153.343L161.055 153.339Z" fill="#DBDBDB"/>
<path d="M167.953 153.638C168.261 131.274 168.55 108.79 168.813 86.1365C169.714 86.0963 170.609 86.0429 171.505 85.9805C171.256 108.71 170.979 131.265 170.676 153.687C169.771 153.678 168.862 153.66 167.953 153.634V153.638Z" fill="#DBDBDB"/>
<path d="M181.102 79.3828H77.8125V159.849H181.102V79.3828Z" fill="#EBEBEB"/>
<path d="M181.101 79.3842L181.244 159.846V159.989H181.101L77.8121 160.064H77.5938V159.846L77.6428 79.3842V79.2148H77.8121L181.101 79.3842ZM181.101 79.3842L77.8121 79.5536L77.9815 79.3842L78.0305 159.846L77.8121 159.628L181.101 159.703L180.959 159.846L181.101 79.3842Z" fill="#DBDBDB"/>
<path d="M99.8849 151.045L99.8047 119.616L99.8849 88.1875L99.9651 119.616L99.8849 151.045Z" fill="#C7C7C7"/>
<path d="M102.447 151.045L102.367 119.616L102.447 88.1875L102.528 119.616L102.447 151.045Z" fill="#C7C7C7"/>
<path d="M105.013 151.045L104.938 119.616L105.013 88.1875L105.093 119.616L105.013 151.045Z" fill="#C7C7C7"/>
<path d="M107.58 151.045L107.5 119.616L107.58 88.1875L107.656 119.616L107.58 151.045Z" fill="#C7C7C7"/>
<path d="M110.143 151.045L110.062 119.616L110.143 88.1875L110.223 119.616L110.143 151.045Z" fill="#C7C7C7"/>
<path d="M112.705 151.045L112.625 119.616L112.705 88.1875L112.785 119.616L112.705 151.045Z" fill="#C7C7C7"/>
<path d="M115.268 151.045L115.188 119.616L115.268 88.1875L115.348 119.616L115.268 151.045Z" fill="#C7C7C7"/>
<path d="M117.83 151.045L117.75 119.616L117.83 88.1875L117.91 119.616L117.83 151.045Z" fill="#C7C7C7"/>
<path d="M120.392 151.045L120.316 119.616L120.392 88.1875L120.472 119.616L120.392 151.045Z" fill="#C7C7C7"/>
<path d="M122.959 151.045L122.879 119.616L122.959 88.1876L123.035 119.616L122.959 151.045Z" fill="#C7C7C7"/>
<path d="M125.521 151.045L125.441 119.616L125.521 88.1876L125.602 119.616L125.521 151.045Z" fill="#C7C7C7"/>
<path d="M128.084 151.045L128.004 119.616L128.084 88.1876L128.164 119.616L128.084 151.045Z" fill="#C7C7C7"/>
<path d="M130.647 151.045L130.566 119.616L130.647 88.1876L130.727 119.616L130.647 151.045Z" fill="#C7C7C7"/>
<path d="M133.209 151.045L133.129 119.616L133.209 88.1876L133.29 119.616L133.209 151.045Z" fill="#C7C7C7"/>
<path d="M135.771 151.045L135.695 119.616L135.771 88.1875L135.851 119.616L135.771 151.045Z" fill="#C7C7C7"/>
<path d="M128.004 139.632V144.4H138.762V139.632H128.004Z" fill="#EEBF17"/>
<path d="M122.262 130.79V135.559H138.756V130.79H122.262Z" fill="#EEBF17"/>
<path d="M115.84 121.942V126.711H138.761V121.942H115.84Z" fill="#EEBF17"/>
<path d="M113.082 113.106V117.875H138.762V113.106H113.082Z" fill="#EEBF17"/>
<path d="M108.168 104.259V109.027H138.763V104.259H108.168Z" fill="#EEBF17"/>
<path d="M103.305 95.4149V100.184H138.758V95.4149H103.305Z" fill="#EEBF17"/>
<path d="M98.0859 149.342L108.256 149.217L118.426 149.133C125.205 149.075 131.984 149.057 138.762 149.048L138.468 149.342L138.455 134.051L138.491 118.765L138.589 103.478L138.762 88.1914L138.936 103.478L139.034 118.765L139.07 134.051L139.057 149.342V149.636H138.762C131.984 149.627 125.205 149.61 118.426 149.552L108.256 149.467L98.0859 149.342Z" fill="#C7C7C7"/>
<path d="M140.91 139.632V144.4H141.342V139.632H140.91Z" fill="#C7C7C7"/>
<path d="M140.914 130.786V135.555H141.346V130.786H140.914Z" fill="#C7C7C7"/>
<path d="M140.91 121.942V126.711H141.342V121.942H140.91Z" fill="#C7C7C7"/>
<path d="M140.91 113.1V117.869H141.342V113.1H140.91Z" fill="#C7C7C7"/>
<path d="M140.91 104.259V109.027H141.342V104.259H140.91Z" fill="#C7C7C7"/>
<path d="M140.91 95.4149V100.184H141.342V95.4149H140.91Z" fill="#C7C7C7"/>
<path d="M129.364 143.86C129.333 141.529 129.146 139.202 128.834 136.898C128.535 134.59 128.13 132.299 127.599 130.039C126.53 125.525 125.077 121.081 122.987 116.941C120.963 112.774 118.352 108.888 115.196 105.496L114.613 104.854L113.993 104.244L112.75 103.027C111.867 102.274 111.025 101.472 110.089 100.785C108.293 99.3103 106.305 98.0847 104.309 96.8814L104.331 96.8457C108.485 98.9626 112.353 101.726 115.589 105.126C117.246 106.789 118.686 108.656 120.032 110.577C121.382 112.498 122.55 114.543 123.597 116.642C125.661 120.859 127.145 125.346 128.108 129.928C129.048 134.509 129.565 139.193 129.369 143.86H129.364Z" fill="#263238"/>
<path d="M107.618 95.5352L107.783 96.1947L104.53 97.0059L105.577 100.192L104.931 100.402L103.656 96.5245L107.618 95.5352Z" fill="#263238"/>
<path d="M157.406 152.389V86.8398H154.755V152.389H157.406Z" fill="#DBDBDB"/>
<path d="M164.102 152.39V115.488H161.45V152.39H164.102Z" fill="#DBDBDB"/>
<path d="M91.8789 138.066V101.164H89.2272V138.066H91.8789Z" fill="#DBDBDB"/>
<path d="M200.142 83.2823L200.102 163.748L96.8125 163.695L96.8437 103.953L116.534 83.2422L200.142 83.2823Z" fill="#EEBF17"/>
<path opacity="0.6" d="M200.142 83.2823L200.102 163.748L96.8125 163.695L96.8437 103.953L116.534 83.2422L200.142 83.2823Z" fill="white"/>
<path d="M96.844 103.953L116.534 83.2422L116.525 103.962L96.844 103.953Z" fill="#EEBF17"/>
<path opacity="0.4" d="M96.844 103.953L116.534 83.2422L116.525 103.962L96.844 103.953Z" fill="white"/>
<path d="M116.801 155.85L116.824 111.113L114.172 111.112L114.149 155.848L116.801 155.85Z" fill="white"/>
<path d="M123.492 155.858L123.516 111.121L120.864 111.12L120.84 155.856L123.492 155.858Z" fill="white"/>
<path d="M130.188 155.864L130.211 111.127L127.559 111.126L127.536 155.862L130.188 155.864Z" fill="white"/>
<path d="M136.88 155.864L136.914 90.3145L134.262 90.3131L134.228 155.863L136.88 155.864Z" fill="white"/>
<path d="M143.575 155.868L143.609 90.3184L140.958 90.317L140.923 155.866L143.575 155.868Z" fill="white"/>
<path d="M150.27 155.874L150.305 90.3242L147.653 90.3228L147.619 155.872L150.27 155.874Z" fill="white"/>
<path d="M156.966 155.878L157 90.3281L154.348 90.3267L154.314 155.876L156.966 155.878Z" fill="white"/>
<path d="M163.661 155.882L163.695 90.332L161.044 90.3306L161.009 155.88L163.661 155.882Z" fill="white"/>
<path d="M170.348 155.882L170.383 90.332L167.731 90.3306L167.697 155.88L170.348 155.882Z" fill="white"/>
<path d="M177.048 155.885L177.082 90.3359L174.43 90.3345L174.396 155.884L177.048 155.885Z" fill="white"/>
<path d="M183.743 155.889L183.777 90.3398L181.126 90.3385L181.091 155.888L183.743 155.889Z" fill="white"/>
<path d="M190.434 155.889L190.469 90.3398L187.817 90.3385L187.783 155.888L190.434 155.889Z" fill="white"/>
<path d="M184.669 167.302H74.3248L65.8125 93.9532H176.161L184.669 167.302Z" fill="#EEBF17"/>
<path d="M103.917 86.3536H64.9297L65.8121 93.9524H107.041L103.917 86.3536Z" fill="#EEBF17"/>
<path d="M87.2356 177.106C86.2284 177.431 57.4692 177.182 56.3773 176.477C55.9628 176.214 55.7533 172.021 55.6464 166.953C55.6241 165.857 55.6063 164.73 55.5929 163.58L53.4492 148.213L72.6755 148.324L74.3022 163.687L74.1864 167.06C74.1864 167.06 85.1544 172.083 86.2685 172.983C87.3738 173.884 88.2384 176.78 87.2312 177.106H87.2356Z" fill="#EB9481"/>
<path d="M87.2359 177.106C86.2287 177.432 57.4695 177.182 56.3776 176.478C55.874 176.152 55.6734 170.033 55.5977 163.58L74.307 163.691L74.1911 167.065C74.1911 167.065 85.1591 172.088 86.2733 172.988C87.3786 173.888 88.2432 176.785 87.2359 177.111V177.106Z" fill="white"/>
<path d="M87.2338 177.106C86.2266 177.431 57.4673 177.181 56.3754 176.477C55.961 176.214 55.7515 172.02 55.6445 166.953L74.1845 167.065C74.1845 167.065 85.1525 172.087 86.2667 172.988C87.372 173.888 88.2365 176.785 87.2293 177.11L87.2338 177.106Z" fill="#FFC727"/>
<path d="M86.8288 175.953C82.011 175.792 62.553 175.596 57.7798 175.806C57.7397 175.806 57.7397 175.832 57.7798 175.837C62.553 176.1 82.011 176.136 86.8288 176.033C86.9313 176.033 86.9313 175.957 86.8288 175.953Z" fill="#263238"/>
<path d="M84.4273 171.934C83.2864 171.876 82.1633 172.411 81.5349 173.084C80.9287 173.735 80.4118 174.648 80.434 175.646C80.434 175.673 80.4875 175.678 80.492 175.646C80.7817 173.761 82.5153 172.121 84.4273 171.992C84.4674 171.992 84.4674 171.934 84.4273 171.93V171.934Z" fill="#263238"/>
<path d="M76.05 167.557C74.1202 167.512 71.8785 168.176 70.6663 169.74C70.6173 169.803 70.7064 169.865 70.7643 169.839C72.5158 168.956 74.1826 168.301 76.0812 167.793C76.2149 167.757 76.1882 167.557 76.05 167.557Z" fill="#263238"/>
<path d="M77.5344 168.15C75.6046 168.106 73.3629 168.77 72.1507 170.334C72.1016 170.397 72.1908 170.459 72.2487 170.432C74.0002 169.55 75.667 168.895 77.5656 168.387C77.6993 168.351 77.6725 168.15 77.5344 168.15Z" fill="#263238"/>
<path d="M79.0227 168.746C77.0929 168.702 74.8512 169.366 73.6389 170.93C73.5899 170.992 73.6791 171.055 73.737 171.028C75.4885 170.146 77.1553 169.49 79.0539 168.982C79.1876 168.947 79.1608 168.746 79.0227 168.746Z" fill="#263238"/>
<path d="M80.507 169.34C78.5773 169.295 76.3356 169.959 75.1233 171.524C75.0743 171.586 75.1634 171.648 75.2214 171.622C76.9729 170.739 78.6397 170.084 80.5382 169.576C80.6719 169.54 80.6452 169.34 80.507 169.34Z" fill="#263238"/>
<path d="M59.045 171.238C56.879 171.225 56.8568 174.59 59.0272 174.603C61.1931 174.616 61.2154 171.252 59.045 171.238Z" fill="#263238"/>
<path d="M78.1828 162.426C77.2112 161.606 75.9767 162.386 75.3661 163.223C74.3767 164.578 73.6904 166.481 73.5701 168.144C73.5701 168.184 73.5968 168.202 73.628 168.197C73.6681 168.335 73.8286 168.451 73.9756 168.358C75.3572 167.417 76.9527 166.588 78.0045 165.251C78.6195 164.471 79.1009 163.197 78.1828 162.426ZM75.7806 166.504C75.1121 166.98 74.4258 167.422 73.7751 167.925C74.1272 166.967 74.4391 166 74.8893 165.077C75.1032 164.636 75.3305 164.191 75.6068 163.781C76.0302 163.148 77.9377 161.552 78.1115 163.651C78.2051 164.81 76.5784 165.933 75.7851 166.504H75.7806Z" fill="#263238"/>
<path d="M68.7692 168.816C70.445 169.088 72.1831 168.624 73.8365 168.383C74.0059 168.357 74.0505 168.161 73.9836 168.031C74.0103 168.014 74.0193 167.978 73.9881 167.951C72.7758 166.806 70.9842 165.87 69.3397 165.536C68.3236 165.331 66.8841 165.589 66.7236 166.85C66.5721 168.04 67.7843 168.655 68.7648 168.816H68.7692ZM67.615 167.706C66.3225 166.039 68.8094 165.928 69.5492 166.111C70.026 166.226 70.4985 166.4 70.953 166.583C71.9068 166.962 72.7892 167.465 73.6984 167.933C72.8783 168 72.0717 168.138 71.2561 168.241C70.2845 168.357 68.3236 168.629 67.615 167.71V167.706Z" fill="#263238"/>
<path d="M26.0742 76.9629C26.0742 76.9629 47.93 115.215 48.496 117.889C49.3651 121.998 53.7371 162.523 53.7371 162.523L75.2497 162.389C75.2497 162.389 71.6843 126.664 68.0387 114.863C66.0466 108.418 55.5777 90.957 50.6664 82.3377C50.2297 81.5667 50.3589 78.0414 50.3589 78.0414L26.0742 76.9629Z" fill="#455A64"/>
<path d="M73.1803 158.802C69.8467 158.735 59.7477 158.459 55.2999 158.815C55.2643 158.815 55.2643 158.873 55.2999 158.878C56.8241 159.114 69.8422 158.958 73.1803 158.891C73.2427 158.891 73.2427 158.802 73.1803 158.797V158.802Z" fill="#263238"/>
<path d="M29.8446 80.4925C31.2797 82.8055 32.795 85.0696 34.2613 87.3648C35.732 89.66 37.1938 91.9552 38.6378 94.2638C41.5213 98.8809 44.329 103.543 47.0833 108.236C48.3757 110.437 49.6058 112.657 50.4793 115.05C51.3483 117.421 51.9277 119.881 52.3511 122.363C52.7745 124.864 53.0463 127.382 53.2959 129.904C53.5633 132.587 53.8263 135.27 54.0937 137.953C54.6374 143.444 55.1811 148.934 55.7293 154.425C55.7961 155.098 55.863 155.771 55.9209 156.444C55.9298 156.542 55.7516 156.56 55.7427 156.462C55.1276 151.007 54.624 145.534 54.0714 140.07C53.7951 137.351 53.5188 134.633 53.2424 131.91C52.9884 129.383 52.7433 126.851 52.3823 124.333C52.0258 121.86 51.5578 119.395 50.8358 116.998C50.0826 114.493 48.9996 112.135 47.7116 109.849C45.0777 105.174 42.2834 100.575 39.489 95.9885C36.6723 91.3625 33.829 86.7497 30.8786 82.1994C30.5132 81.6379 30.1477 81.0808 29.7689 80.5282C29.7377 80.4836 29.8134 80.4435 29.8402 80.4881L29.8446 80.4925Z" fill="#263238"/>
<path d="M34.7258 178.665C33.6696 178.589 6.45684 167.171 5.70811 166.111C5.68137 166.075 5.668 166.004 5.668 165.91C5.68583 164.97 7.62004 161.703 9.25566 157.402C9.35817 157.126 10.0802 155.856 11.0785 154.14C13.8283 149.425 18.695 141.354 18.695 141.354L36.4818 148.676L27.7689 161.378L26.4007 164.462C26.4007 164.462 34.6813 173.232 35.3765 174.485C36.0673 175.733 35.7821 178.745 34.7258 178.67V178.665Z" fill="#EB9481"/>
<path d="M34.7258 178.666C33.6696 178.59 6.45684 167.172 5.70811 166.111C5.68137 166.076 5.668 166.004 5.668 165.911C5.68583 164.97 7.62004 161.704 9.25566 157.403C9.35817 157.127 10.0802 155.856 11.0785 154.141L27.7689 161.378L26.4007 164.462C26.4007 164.462 34.6813 173.233 35.3765 174.486C36.0673 175.733 35.7821 178.746 34.7258 178.67V178.666Z" fill="white"/>
<path d="M34.7246 178.665C33.6684 178.59 6.45562 167.171 5.71134 166.111C5.42611 165.71 6.69628 161.988 9.25444 157.402L26.3995 164.457C26.3995 164.457 34.68 173.228 35.3753 174.476C36.0661 175.724 35.7764 178.737 34.7202 178.661L34.7246 178.665Z" fill="#FFC727"/>
<path d="M34.7815 177.443C30.3738 175.486 12.4132 168.008 7.90747 166.408C7.87182 166.395 7.86291 166.421 7.8941 166.435C12.2216 168.471 30.2401 175.803 34.7503 177.514C34.8439 177.55 34.8751 177.483 34.7815 177.443Z" fill="#263238"/>
<path d="M34.0644 172.813C33.026 172.332 31.7871 172.403 30.9492 172.796C30.147 173.17 29.318 173.825 28.9659 174.761C28.957 174.788 29.0061 174.81 29.0194 174.783C29.9955 173.148 32.2149 172.274 34.0377 172.871C34.0734 172.885 34.0956 172.831 34.06 172.813H34.0644Z" fill="#263238"/>
<path d="M27.939 165.619C26.1653 164.853 23.8389 164.625 22.1275 165.624C22.0606 165.664 22.1186 165.757 22.181 165.753C24.1375 165.593 25.9246 165.606 27.8766 165.851C28.0148 165.869 28.0638 165.673 27.939 165.619Z" fill="#263238"/>
<path d="M29.0953 166.725C27.3215 165.958 24.9951 165.731 23.2837 166.729C23.2169 166.769 23.2748 166.863 23.3372 166.854C25.2937 166.694 27.0809 166.707 29.0329 166.952C29.1711 166.97 29.2201 166.774 29.0953 166.72V166.725Z" fill="#263238"/>
<path d="M30.2476 167.834C28.4739 167.068 26.1475 166.84 24.4361 167.839C24.3692 167.879 24.4272 167.972 24.4895 167.968C26.4461 167.807 28.2332 167.821 30.1852 168.066C30.3234 168.084 30.3724 167.888 30.2476 167.834Z" fill="#263238"/>
<path d="M31.4039 168.94C29.6301 168.173 27.3037 167.946 25.5923 168.944C25.5255 168.984 25.5834 169.078 25.6458 169.073C27.6023 168.913 29.3894 168.926 31.3415 169.171C31.4797 169.189 31.5287 168.993 31.4039 168.94Z" fill="#263238"/>
<path d="M10.7944 162.651C8.79328 161.827 7.50975 164.938 9.51527 165.762C11.5163 166.587 12.7999 163.476 10.7944 162.651Z" fill="#263238"/>
<path d="M31.8393 161.662C31.2466 160.539 29.8071 160.797 28.9291 161.346C27.5074 162.228 26.157 163.734 25.4172 165.232C25.3994 165.268 25.4172 165.294 25.4528 165.308C25.4395 165.45 25.5464 165.62 25.7158 165.584C27.3469 165.232 29.1385 165.058 30.6137 164.216C31.4739 163.726 32.4009 162.723 31.8393 161.662ZM28.0823 164.541C27.2845 164.733 26.4779 164.884 25.689 165.107C26.3754 164.349 27.0261 163.57 27.7882 162.883C28.1536 162.558 28.5324 162.228 28.938 161.952C29.5708 161.524 31.9374 160.762 31.309 162.772C30.9613 163.882 29.036 164.314 28.0823 164.541Z" fill="#263238"/>
<path d="M20.719 164.056C22.1719 164.938 23.9546 165.161 25.5769 165.558C25.7462 165.598 25.8576 165.433 25.8443 165.29C25.8755 165.281 25.8977 165.255 25.8799 165.219C25.1847 163.704 23.8744 162.162 22.4794 161.239C21.6148 160.669 20.1842 160.37 19.5603 161.475C18.972 162.523 19.8678 163.548 20.7146 164.06L20.719 164.056ZM20.0639 162.594C19.4934 160.566 21.8377 161.395 22.4572 161.841C22.8538 162.126 23.2282 162.465 23.5803 162.803C24.3245 163.512 24.9529 164.31 25.617 165.085C24.8326 164.84 24.0348 164.666 23.2371 164.452C22.2923 164.198 20.3759 163.712 20.0594 162.594H20.0639Z" fill="#263238"/>
<path d="M29.1582 160.673L9.25 152.348C9.25 152.348 34.5062 116.177 34.7246 113.468C34.9163 111.066 24.2781 90.0031 23.926 83.8974C23.5427 77.3103 26.7738 72.2564 30.2991 69.1367L50.3633 78.0413C50.3633 78.0413 48.6073 81.6245 45.1534 83.523C45.1534 83.523 55.4395 107.843 54.7487 115.273C54.0534 122.742 29.1626 160.678 29.1626 160.678L29.1582 160.673Z" fill="#455A64"/>
<path d="M30.0957 156.881C27.2166 155.602 28.0634 155.927 25.171 154.679C23.7537 154.068 14.4526 150.066 13.0309 149.728C12.9997 149.719 12.9774 149.768 13.0041 149.786C14.2386 150.561 23.6111 154.403 25.0373 154.987C27.952 156.177 27.1275 155.802 30.0555 156.961C30.109 156.983 30.1447 156.899 30.0912 156.876L30.0957 156.881Z" fill="#263238"/>
<path d="M48.5549 83.121C46.3978 83.5577 44.2809 84.2886 42.2442 85.0819C42.1639 85.1131 42.1996 85.2335 42.2843 85.2067C44.4012 84.6184 46.5538 84.0658 48.6351 83.3661C48.8 83.3126 48.7198 83.0853 48.5549 83.121Z" fill="#263238"/>
<path d="M46.1175 82.2381C45.908 82.5902 45.7342 82.9601 45.5737 83.3389C45.449 83.6286 45.293 83.945 45.293 84.2615C45.293 84.3239 45.3776 84.3417 45.4133 84.3016C45.654 84.0698 45.7877 83.7267 45.9437 83.4325C46.1219 83.0938 46.3091 82.7595 46.4785 82.4164C46.5899 82.1891 46.2423 82.0197 46.1175 82.2381Z" fill="#263238"/>
<path d="M46.3904 80.3047C46.5196 79.9883 46.6533 79.6719 46.7915 79.3599C46.9341 79.0346 47.099 78.7181 47.2149 78.3839C47.2327 78.3304 47.3174 78.3661 47.2951 78.4195C47.1658 78.736 47.0767 79.0747 46.9742 79.4C46.8672 79.7254 46.7558 80.0507 46.6444 80.376C46.4349 80.9821 46.1809 81.5793 45.9135 82.1632C46.2522 82.1632 46.5998 82.1543 46.9074 82.0027C47.2416 81.8423 47.4511 81.4902 47.616 81.1693C47.8032 80.8172 47.9725 80.4563 48.1641 80.1042C48.3781 79.7164 48.6098 79.3332 48.7524 78.9142C48.7703 78.8607 48.8505 78.8964 48.8327 78.9499C48.5118 79.8189 48.1953 80.6835 47.7006 81.4813C47.509 81.7933 47.3486 82.1231 46.9965 82.2389C46.6177 82.3682 46.2076 82.337 45.8155 82.3013C45.7664 82.3147 45.704 82.2835 45.7219 82.2256C45.9135 81.5793 46.1319 80.9242 46.3904 80.2958V80.3047Z" fill="#263238"/>
<path d="M45.4631 84.3112C46.1761 85.8755 46.8045 87.4309 47.4686 88.9908C48.1193 90.515 48.7298 92.0526 49.3181 93.599C50.5125 96.7232 51.5732 99.9053 52.5002 103.119C52.9593 104.71 53.3827 106.31 53.757 107.923C54.1358 109.541 54.5058 111.172 54.6528 112.83C54.7999 114.492 54.6617 116.132 54.176 117.732C53.6857 119.354 53.0529 120.767 52.2997 122.283C51.8406 123.21 51.6846 123.08 51.9119 122.612C52.5448 121.289 54.2072 117.264 54.1314 113.868C54.0957 112.228 53.7793 110.61 53.4272 109.015C53.0707 107.384 52.6607 105.766 52.215 104.157C51.337 100.988 50.2852 97.8775 49.2023 94.7756C48.5961 93.0375 47.9455 91.3127 47.326 89.5791C46.7065 87.832 46.0647 86.2544 45.3739 84.3469C45.3561 84.2979 45.4274 84.2667 45.4497 84.3157L45.4631 84.3112Z" fill="#263238"/>
<path d="M30.3345 78.989C30.6955 78.8598 31.1901 79.0871 31.5556 79.1539C32.0236 79.2386 32.496 79.2921 32.9728 79.3143C33.4408 79.3366 33.9132 79.3233 34.3812 79.2831C34.8491 79.243 35.326 79.194 35.7315 78.9444C36.4179 78.5255 37.0017 77.7812 37.4697 77.1439C37.9867 76.4398 38.5259 75.6286 38.8379 74.8086C38.8557 74.7596 38.927 74.7952 38.9136 74.8443C38.7577 75.3211 38.6373 75.8024 38.4412 76.2704C38.2541 76.7072 38.0178 77.1261 37.7638 77.5317C37.2914 78.2848 36.7521 79.0871 35.9588 79.5327C35.121 79.9962 34.0514 79.9561 33.1288 79.8893C32.594 79.8536 32.0592 79.7734 31.5378 79.6575C31.1589 79.5728 30.5216 79.506 30.2854 79.1673C30.2453 79.1093 30.2676 79.0157 30.3389 78.9935L30.3345 78.989Z" fill="#263238"/>
<path d="M15.0103 148.604C18.3617 143.666 21.6508 138.688 24.8819 133.674C28.1219 128.646 31.304 123.579 34.4416 118.49C35.1903 117.273 36.0594 116.056 36.5496 114.701C37.0844 113.231 36.8081 111.796 36.358 110.343C35.5335 107.682 34.4995 105.088 33.3809 102.539C32.2578 99.9809 31.0455 97.4673 29.8556 94.9403C28.6746 92.4356 27.4133 89.922 26.5264 87.2926C25.6797 84.7834 25.3766 82.1852 26.0808 79.6003C26.7805 77.0376 28.2556 74.7424 29.7932 72.6077C30.1988 72.0461 30.6132 71.4846 31.0188 70.923C31.05 70.8784 31.1169 70.9319 31.0812 70.9765C29.3876 73.2049 27.7342 75.5625 26.727 78.1875C26.2278 79.4844 25.898 80.8526 25.8535 82.2476C25.8044 83.6603 26.054 85.0642 26.4507 86.4146C27.2261 89.0396 28.474 91.5354 29.6372 94.0088C30.8227 96.5358 32.0439 99.0494 33.1848 101.599C34.3346 104.161 35.4087 106.764 36.2822 109.438C36.6699 110.628 37.1067 111.871 37.0666 113.142C37.022 114.532 36.3401 115.775 35.6404 116.939C32.5831 122.006 29.4188 127.006 26.21 131.976C22.9922 136.967 19.7121 141.914 16.3829 146.834C15.964 147.454 15.5406 148.073 15.1217 148.693C15.0682 148.769 14.9568 148.675 15.0103 148.599V148.604Z" fill="#263238"/>
<path d="M58.9879 36.3045C57.6286 34.2321 55.008 33.479 52.3607 33.733C49.709 33.987 46.4734 34.9987 45.7113 39.4554C45.0918 43.0743 45.8049 46.7466 45.3548 50.8112C44.9046 54.8757 39.4362 64.2927 46.0188 69.9127C51.9329 74.9621 65.2852 72.4084 66.6312 63.5128C67.7008 56.4623 60.2937 49.0151 59.7366 46.1138C59.1795 43.2124 60.4809 38.5774 58.9879 36.3045Z" fill="#263238"/>
<path d="M59.7268 40.4316C59.5619 42.4639 59.6243 44.5452 60.2304 46.5507C60.3775 47.0499 60.6137 47.5446 60.89 47.9858C61.1618 48.4315 61.456 48.8504 61.7457 49.2738C62.3384 50.1072 62.9223 50.9361 63.466 51.7874C64.5579 53.4854 65.476 55.2948 66.0464 57.2246C66.6213 59.1543 66.8174 61.1955 66.6614 63.2322C66.8575 62.2295 66.9244 61.2 66.8976 60.1705C66.8575 59.141 66.706 58.1159 66.4609 57.1132C65.9751 55.0987 65.0392 53.218 63.9384 51.4843C63.3813 50.6197 62.7796 49.7863 62.1824 48.9618C61.5852 48.1329 60.9747 47.3396 60.6449 46.4081C60.2972 45.4767 60.0967 44.4783 59.963 43.4756C59.8115 42.4728 59.7491 41.4567 59.7179 40.4361L59.7268 40.4316Z" fill="#263238"/>
<path d="M45.5634 42.5353C45.394 44.6077 45.3004 46.6889 45.0286 48.7346C44.8815 49.7552 44.721 50.7758 44.4536 51.7652C44.1996 52.7456 43.8074 53.7083 43.4598 54.6888C43.1166 55.6737 42.7913 56.6675 42.5194 57.6837C42.2654 58.7043 42.0693 59.7427 41.9935 60.7945C41.9356 61.8507 41.9935 62.9114 42.2253 63.9454C42.5016 64.9704 42.9695 65.9286 43.6113 66.7487C43.0765 65.8529 42.6754 64.8991 42.4971 63.8874C42.3322 62.8758 42.3189 61.8507 42.4258 60.8346C42.6709 58.7979 43.286 56.828 43.9901 54.8804C44.3244 53.8999 44.7166 52.9373 44.9662 51.8944C45.2068 50.8694 45.3673 49.8265 45.4519 48.7836C45.6347 46.6979 45.6213 44.6166 45.5589 42.5353H45.5634Z" fill="#263238"/>
<path d="M48.781 53.0397C48.1704 56.5249 48.5448 71.6064 50.2963 76.4197C52.3419 82.0307 56.9323 91.9112 58.5278 91.9023C60.052 91.8934 68.3638 87.0445 67.4413 85.6986C66.5187 84.3526 60.1768 74.2983 59.2721 72.4354C58.7373 71.339 55.4571 60.2596 53.4026 54.711C51.5397 49.6927 49.6188 48.2443 48.781 53.0397Z" fill="#EB9481"/>
<path d="M48.2116 62.7549L57.9139 63.7443C57.9139 63.7443 53.9251 53.788 51.9285 51.1897C49.6779 48.2661 48.6751 50.0577 48.1938 53.5295C47.7124 57.0013 48.2116 62.7549 48.2116 62.7549Z" fill="#FFC727"/>
<path d="M50.7381 52.7676C50.7381 53.035 50.5197 53.2578 50.2478 53.2578C49.976 53.2578 49.7576 53.0394 49.7576 52.7676C49.7576 52.4957 49.976 52.2773 50.2478 52.2773C50.5197 52.2773 50.7381 52.4957 50.7381 52.7676ZM50.2478 58.4544C49.9804 58.4544 49.7576 58.6727 49.7576 58.9446C49.7576 59.2165 49.976 59.4348 50.2478 59.4348C50.5197 59.4348 50.7381 59.2165 50.7381 58.9446C50.7381 58.6727 50.5197 58.4544 50.2478 58.4544ZM54.5129 58.4544C54.2455 58.4544 54.0227 58.6727 54.0227 58.9446C54.0227 59.2165 54.2411 59.4348 54.5129 59.4348C54.7848 59.4348 55.0032 59.2165 55.0032 58.9446C55.0032 58.6727 54.7848 58.4544 54.5129 58.4544ZM48.1175 55.3748C48.0863 55.3748 48.0551 55.3748 48.0239 55.3837C48.0106 55.6956 47.9972 56.0165 47.9883 56.3374C48.0284 56.3508 48.073 56.3552 48.1175 56.3552C48.3849 56.3552 48.6078 56.1369 48.6078 55.865C48.6078 55.5931 48.3849 55.3748 48.1175 55.3748ZM52.3826 55.3748C52.1152 55.3748 51.8924 55.5931 51.8924 55.865C51.8924 56.1369 52.1108 56.3552 52.3826 56.3552C52.6545 56.3552 52.8728 56.1369 52.8728 55.865C52.8728 55.5931 52.6545 55.3748 52.3826 55.3748ZM48.122 61.5518C48.1487 61.9841 48.171 62.3183 48.1888 62.5233C48.425 62.4877 48.6078 62.2827 48.6078 62.0376C48.6078 61.7702 48.3894 61.5562 48.122 61.5518ZM52.3826 61.5518C52.1152 61.5518 51.8924 61.7702 51.8924 62.042C51.8924 62.3139 52.1108 62.5323 52.3826 62.5323C52.6545 62.5323 52.8728 62.3139 52.8728 62.042C52.8728 61.7702 52.6545 61.5518 52.3826 61.5518ZM56.6477 61.5518C56.3803 61.5518 56.1575 61.7702 56.1575 62.042C56.1575 62.3139 56.3758 62.5323 56.6477 62.5323C56.9196 62.5323 57.1379 62.3139 57.1379 62.042C57.1379 61.7702 56.9196 61.5518 56.6477 61.5518Z" fill="white"/>
<path d="M56.726 61.8836C56.3962 61.7989 53.3745 61.4424 52.7194 61.38C52.0598 61.3176 49.3769 61.0324 48.6905 61.0234C48.6593 61.0234 48.6549 61.0635 48.6816 61.0725C49.3501 61.2106 52.0598 61.5048 52.7283 61.5805C53.3968 61.6607 56.3918 61.946 56.726 61.9326C56.7527 61.9326 56.7483 61.8925 56.726 61.888V61.8836Z" fill="#263238"/>
<path d="M56.2788 63.5802L48.2077 62.7558C48.2077 62.7558 47.7085 57.0021 48.1899 53.5259C48.5419 50.99 49.1703 49.3499 50.3647 49.7956L56.2744 63.5758L56.2788 63.5802Z" fill="#263238"/>
<path d="M50.745 79.926L51.9126 70.197C51.9126 70.197 55.5939 67.465 55.1705 63.9665C54.9566 62.1927 52.5633 53.0921 50.5533 50.3334C48.6637 47.7485 44.9111 48.3546 43.2488 49.5222C37.9586 53.2391 33.6267 57.2769 27.0664 71.2978L50.7494 79.9216L50.745 79.926Z" fill="#FFC727"/>
<path d="M42.2099 52.7671C42.2099 53.0345 41.9916 53.2573 41.7197 53.2573C41.4478 53.2573 41.2295 53.039 41.2295 52.7671C41.2295 52.4952 41.4478 52.2769 41.7197 52.2769C41.9916 52.2769 42.2099 52.4952 42.2099 52.7671ZM45.9848 52.2769C45.7174 52.2769 45.4945 52.4952 45.4945 52.7671C45.4945 53.039 45.7129 53.2573 45.9848 53.2573C46.2566 53.2573 46.475 53.039 46.475 52.7671C46.475 52.4952 46.2566 52.2769 45.9848 52.2769ZM50.2499 52.2769C49.9825 52.2769 49.7596 52.4952 49.7596 52.7671C49.7596 53.039 49.978 53.2573 50.2499 53.2573C50.5217 53.2573 50.7401 53.039 50.7401 52.7671C50.7401 52.4952 50.5217 52.2769 50.2499 52.2769ZM43.8545 49.1973C43.8277 49.1973 43.8054 49.1973 43.7787 49.2062H43.7742C43.6762 49.2552 43.5826 49.3042 43.4935 49.3622C43.4132 49.4468 43.3687 49.5627 43.3687 49.6875C43.3687 49.9549 43.5871 50.1733 43.8545 50.1733C44.1219 50.1733 44.3447 49.9549 44.3447 49.6875C44.3447 49.4201 44.1263 49.1973 43.8545 49.1973ZM48.1195 49.1973C47.8521 49.1973 47.6293 49.4156 47.6293 49.6875C47.6293 49.9594 47.8477 50.1777 48.1195 50.1777C48.3914 50.1777 48.6098 49.9594 48.6098 49.6875C48.6098 49.4156 48.3914 49.1973 48.1195 49.1973ZM37.4591 58.4494C37.1917 58.4494 36.9688 58.6678 36.9688 58.9397C36.9688 59.2115 37.1872 59.4299 37.4591 59.4299C37.7309 59.4299 37.9493 59.2115 37.9493 58.9397C37.9493 58.6678 37.7309 58.4494 37.4591 58.4494ZM41.7241 58.4494C41.4567 58.4494 41.2339 58.6678 41.2339 58.9397C41.2339 59.2115 41.4523 59.4299 41.7241 59.4299C41.996 59.4299 42.2144 59.2115 42.2144 58.9397C42.2144 58.6678 41.996 58.4494 41.7241 58.4494ZM45.9892 58.4494C45.7218 58.4494 45.499 58.6678 45.499 58.9397C45.499 59.2115 45.7174 59.4299 45.9892 59.4299C46.2611 59.4299 46.4795 59.2115 46.4795 58.9397C46.4795 58.6678 46.2611 58.4494 45.9892 58.4494ZM50.2543 58.4494C49.9869 58.4494 49.7641 58.6678 49.7641 58.9397C49.7641 59.2115 49.9825 59.4299 50.2543 59.4299C50.5262 59.4299 50.7446 59.2115 50.7446 58.9397C50.7446 58.6678 50.5262 58.4494 50.2543 58.4494ZM39.5938 55.3698C39.3264 55.3698 39.1036 55.5882 39.1036 55.8601C39.1036 56.1319 39.322 56.3503 39.5938 56.3503C39.8657 56.3503 40.0841 56.1319 40.0841 55.8601C40.0841 55.5882 39.8657 55.3698 39.5938 55.3698ZM43.8589 55.3698C43.5915 55.3698 43.3687 55.5882 43.3687 55.8601C43.3687 56.1319 43.5871 56.3503 43.8589 56.3503C44.1308 56.3503 44.3492 56.1319 44.3492 55.8601C44.3492 55.5882 44.1308 55.3698 43.8589 55.3698ZM48.124 55.3698C47.8566 55.3698 47.6338 55.5882 47.6338 55.8601C47.6338 56.1319 47.8521 56.3503 48.124 56.3503C48.3959 56.3503 48.6142 56.1319 48.6142 55.8601C48.6142 55.5882 48.3959 55.3698 48.124 55.3698ZM52.3891 55.3698C52.1217 55.3698 51.8988 55.5882 51.8988 55.8601C51.8988 56.1319 52.1172 56.3503 52.3891 56.3503C52.6609 56.3503 52.8793 56.1319 52.8793 55.8601C52.8793 55.5882 52.6609 55.3698 52.3891 55.3698ZM33.2029 64.622C32.9355 64.622 32.7127 64.8404 32.7127 65.1122C32.7127 65.3841 32.931 65.6025 33.2029 65.6025C33.4748 65.6025 33.6931 65.3841 33.6931 65.1122C33.6931 64.8404 33.4748 64.622 33.2029 64.622ZM37.468 64.622C37.2006 64.622 36.9777 64.8404 36.9777 65.1122C36.9777 65.3841 37.1961 65.6025 37.468 65.6025C37.7398 65.6025 37.9582 65.3841 37.9582 65.1122C37.9582 64.8404 37.7398 64.622 37.468 64.622ZM41.7331 64.622C41.4657 64.622 41.2428 64.8404 41.2428 65.1122C41.2428 65.3841 41.4612 65.6025 41.7331 65.6025C42.0049 65.6025 42.2233 65.3841 42.2233 65.1122C42.2233 64.8404 42.0049 64.622 41.7331 64.622ZM45.9981 64.622C45.7307 64.622 45.5079 64.8404 45.5079 65.1122C45.5079 65.3841 45.7263 65.6025 45.9981 65.6025C46.27 65.6025 46.4884 65.3841 46.4884 65.1122C46.4884 64.8404 46.27 64.622 45.9981 64.622ZM50.2632 64.622C49.9958 64.622 49.773 64.8404 49.773 65.1122C49.773 65.3841 49.9914 65.6025 50.2632 65.6025C50.5351 65.6025 50.7535 65.3841 50.7535 65.1122C50.7535 64.8404 50.5351 64.622 50.2632 64.622ZM54.5283 64.622C54.2609 64.622 54.0381 64.8404 54.0381 65.1122C54.0381 65.3841 54.2565 65.6025 54.5283 65.6025C54.8002 65.6025 55.0186 65.3841 55.0186 65.1122C55.0186 64.8404 54.8002 64.622 54.5283 64.622ZM35.3421 61.5424C35.0747 61.5424 34.8519 61.7608 34.8519 62.0326C34.8519 62.3045 35.0703 62.5229 35.3421 62.5229C35.614 62.5229 35.8324 62.3045 35.8324 62.0326C35.8324 61.7608 35.614 61.5424 35.3421 61.5424ZM39.6072 61.5424C39.3398 61.5424 39.117 61.7608 39.117 62.0326C39.117 62.3045 39.3353 62.5229 39.6072 62.5229C39.8791 62.5229 40.0974 62.3045 40.0974 62.0326C40.0974 61.7608 39.8791 61.5424 39.6072 61.5424ZM43.8723 61.5424C43.6049 61.5424 43.382 61.7608 43.382 62.0326C43.382 62.3045 43.6004 62.5229 43.8723 62.5229C44.1441 62.5229 44.3625 62.3045 44.3625 62.0326C44.3625 61.7608 44.1441 61.5424 43.8723 61.5424ZM48.1374 61.5424C47.87 61.5424 47.6471 61.7608 47.6471 62.0326C47.6471 62.3045 47.8655 62.5229 48.1374 62.5229C48.4092 62.5229 48.6276 62.3045 48.6276 62.0326C48.6276 61.7608 48.4092 61.5424 48.1374 61.5424ZM52.4025 61.5424C52.1351 61.5424 51.9122 61.7608 51.9122 62.0326C51.9122 62.3045 52.1306 62.5229 52.4025 62.5229C52.6743 62.5229 52.8927 62.3045 52.8927 62.0326C52.8927 61.7608 52.6743 61.5424 52.4025 61.5424ZM28.9512 70.7946C28.6838 70.7946 28.4609 71.0129 28.4609 71.2848C28.4609 71.5566 28.6793 71.775 28.9512 71.775C29.223 71.775 29.4414 71.5566 29.4414 71.2848C29.4414 71.0129 29.223 70.7946 28.9512 70.7946ZM33.2163 70.7946C32.9489 70.7946 32.726 71.0129 32.726 71.2848C32.726 71.5566 32.9444 71.775 33.2163 71.775C33.4881 71.775 33.7065 71.5566 33.7065 71.2848C33.7065 71.0129 33.4881 70.7946 33.2163 70.7946ZM37.4813 70.7946C37.2139 70.7946 36.9911 71.0129 36.9911 71.2848C36.9911 71.5566 37.2095 71.775 37.4813 71.775C37.7532 71.775 37.9716 71.5566 37.9716 71.2848C37.9716 71.0129 37.7532 70.7946 37.4813 70.7946ZM41.7464 70.7946C41.479 70.7946 41.2562 71.0129 41.2562 71.2848C41.2562 71.5566 41.4746 71.775 41.7464 71.775C42.0183 71.775 42.2367 71.5566 42.2367 71.2848C42.2367 71.0129 42.0183 70.7946 41.7464 70.7946ZM46.0115 70.7946C45.7441 70.7946 45.5213 71.0129 45.5213 71.2848C45.5213 71.5566 45.7397 71.775 46.0115 71.775C46.2834 71.775 46.5018 71.5566 46.5018 71.2848C46.5018 71.0129 46.2834 70.7946 46.0115 70.7946ZM50.2766 70.7946C50.0092 70.7946 49.7864 71.0129 49.7864 71.2848C49.7864 71.5566 50.0047 71.775 50.2766 71.775C50.5485 71.775 50.7668 71.5566 50.7668 71.2848C50.7668 71.0129 50.5485 70.7946 50.2766 70.7946ZM31.0904 67.715C30.823 67.715 30.6002 67.9333 30.6002 68.2052C30.6002 68.477 30.8185 68.6954 31.0904 68.6954C31.3623 68.6954 31.5806 68.477 31.5806 68.2052C31.5806 67.9333 31.3623 67.715 31.0904 67.715ZM35.3555 67.715C35.0881 67.715 34.8652 67.9333 34.8652 68.2052C34.8652 68.477 35.0836 68.6954 35.3555 68.6954C35.6273 68.6954 35.8457 68.477 35.8457 68.2052C35.8457 67.9333 35.6273 67.715 35.3555 67.715ZM39.6206 67.715C39.3532 67.715 39.1303 67.9333 39.1303 68.2052C39.1303 68.477 39.3487 68.6954 39.6206 68.6954C39.8924 68.6954 40.1108 68.477 40.1108 68.2052C40.1108 67.9333 39.8924 67.715 39.6206 67.715ZM43.8857 67.715C43.6183 67.715 43.3954 67.9333 43.3954 68.2052C43.3954 68.477 43.6138 68.6954 43.8857 68.6954C44.1575 68.6954 44.3759 68.477 44.3759 68.2052C44.3759 67.9333 44.1575 67.715 43.8857 67.715ZM48.1507 67.715C47.8833 67.715 47.6605 67.9333 47.6605 68.2052C47.6605 68.477 47.8789 68.6954 48.1507 68.6954C48.4226 68.6954 48.641 68.477 48.641 68.2052C48.641 67.9333 48.4226 67.715 48.1507 67.715ZM52.4158 67.715C52.1484 67.715 51.9256 67.9333 51.9256 68.2052C51.9256 68.477 52.144 68.6954 52.4158 68.6954C52.6877 68.6954 52.9061 68.477 52.9061 68.2052C52.9061 67.9333 52.6877 67.715 52.4158 67.715ZM46.0204 76.9671C45.753 76.9671 45.5302 77.1855 45.5302 77.4574C45.5302 77.7292 45.7486 77.9476 46.0204 77.9476C46.2923 77.9476 46.5107 77.7292 46.5107 77.4574C46.5107 77.1855 46.2923 76.9671 46.0204 76.9671ZM50.2855 76.9671C50.0181 76.9671 49.7953 77.1855 49.7953 77.4574C49.7953 77.7292 50.0137 77.9476 50.2855 77.9476C50.5574 77.9476 50.7758 77.7292 50.7758 77.4574C50.7758 77.1855 50.5574 76.9671 50.2855 76.9671ZM35.3644 73.892C35.1772 73.892 35.0168 73.9945 34.9366 74.146L35.8457 74.4803C35.8502 74.4491 35.8546 74.4134 35.8546 74.3778C35.8546 74.1104 35.6318 73.892 35.3644 73.892ZM39.6295 73.892C39.3621 73.892 39.1392 74.1103 39.1392 74.3822C39.1392 74.6541 39.3576 74.8724 39.6295 74.8724C39.9013 74.8724 40.1197 74.6541 40.1197 74.3822C40.1197 74.1103 39.9013 73.892 39.6295 73.892ZM43.8946 73.892C43.6272 73.892 43.4043 74.1103 43.4043 74.3822C43.4043 74.6541 43.6227 74.8724 43.8946 74.8724C44.1664 74.8724 44.3848 74.6541 44.3848 74.3822C44.3848 74.1103 44.1664 73.892 43.8946 73.892ZM48.1597 73.892C47.8923 73.892 47.6694 74.1103 47.6694 74.3822C47.6694 74.6541 47.8878 74.8724 48.1597 74.8724C48.4315 74.8724 48.6499 74.6541 48.6499 74.3822C48.6499 74.1103 48.4315 73.892 48.1597 73.892Z" fill="white"/>
<path d="M43.492 87.8204L45.3672 92.3789L71.9682 81.4365L70.093 76.878L43.492 87.8204Z" fill="#C7C7C7"/>
<path d="M29.4883 92.2175L32.3228 99.112H32.3272L50.9028 91.4688L48.0684 84.5742L29.4883 92.2175Z" fill="#263238"/>
<path d="M71.2014 59.6583C77.5433 49.0201 91.3547 45.526 101.993 51.8635C112.631 58.2054 116.13 72.0168 109.788 82.655C103.446 93.2932 89.6344 96.7917 78.9962 90.4498C68.358 84.1079 64.8595 70.2965 71.2014 59.6583ZM73.412 60.9775C67.7965 70.3946 70.8939 82.6283 80.311 88.2393C89.728 93.8548 101.962 90.7573 107.573 81.3403C113.188 71.9232 110.091 59.694 100.674 54.0785C91.2567 48.463 79.0274 51.5604 73.412 60.9775Z" fill="#37474F"/>
<path d="M88.1428 94.1706C84.827 93.8363 81.5958 92.7801 78.6544 91.0242C73.3554 87.8643 69.6028 82.8238 68.0831 76.8295C66.5633 70.8352 67.468 64.6136 70.6278 59.3146C73.7877 54.0155 78.8282 50.263 84.8225 48.7432C90.8168 47.2235 97.0384 48.1282 102.337 51.288C113.292 57.8171 116.893 72.043 110.364 82.9976C107.204 88.2966 102.164 92.0492 96.1693 93.5689C93.5042 94.2419 90.7945 94.438 88.1428 94.1706ZM92.7109 49.4697C90.2107 49.2201 87.6614 49.4028 85.1479 50.0401C79.4967 51.4707 74.7503 55.0049 71.7732 59.9964C68.7961 64.988 67.9449 70.8486 69.3755 76.4997C70.8061 82.1508 74.3403 86.8972 79.3318 89.8743C82.1529 91.5545 85.2013 92.5216 88.272 92.8336C96.4367 93.6581 104.735 89.8164 109.21 82.3113C115.36 71.9895 111.968 58.5881 101.647 52.4378C98.8746 50.7844 95.8306 49.7861 92.7065 49.4741L92.7109 49.4697ZM88.4057 91.608C85.4598 91.3094 82.5897 90.369 79.9736 88.8092C70.2401 83.0065 67.0402 70.3672 72.8428 60.6293C75.6506 55.9185 80.1296 52.5849 85.4554 51.2345C90.7856 49.8841 96.3119 50.6908 101.018 53.4941C105.729 56.3018 109.063 60.7808 110.413 66.1066C111.763 71.4369 110.957 76.9632 108.153 81.6695C105.346 86.3802 100.867 89.7139 95.5409 91.0643C93.1744 91.6615 90.7678 91.8397 88.4102 91.5991L88.4057 91.608ZM73.9882 61.3156C68.5644 70.4163 71.5548 82.2355 80.6555 87.6638C85.0587 90.2888 90.2241 91.0375 95.2067 89.7763C100.189 88.515 104.379 85.3953 106.999 80.9965C109.624 76.5933 110.373 71.4279 109.112 66.4453C107.85 61.4627 104.731 57.2734 100.332 54.6528C95.9287 52.0278 90.7633 51.2791 85.7807 52.5403C80.7981 53.8016 76.6088 56.9213 73.9882 61.3201V61.3156Z" fill="#37474F"/>
<g opacity="0.2">
<path d="M97.8483 53.5218C88.1104 49.4618 76.9195 54.0611 72.855 63.799C68.7949 73.537 73.3987 84.7278 83.1322 88.7923C92.8746 92.8569 104.065 88.2531 108.125 78.5151C112.19 68.7727 107.582 57.5864 97.8438 53.5218H97.8483Z" fill="white"/>
<path d="M92.6171 52.1622C84.39 51.2352 76.203 55.7721 72.8605 63.7987C72.1697 65.4566 71.7284 67.159 71.5234 68.8615L92.6216 52.1577L92.6171 52.1622Z" fill="#EBEBEB"/>
<path d="M108.08 63.688L79.1875 86.5644C80.3864 87.4468 81.71 88.1956 83.1406 88.7928C84.7851 89.4836 86.4742 89.9203 88.1633 90.1209L109.498 73.2344C109.859 69.9408 109.346 66.6562 108.085 63.6836L108.08 63.688Z" fill="#EBEBEB"/>
<path d="M99.5677 54.3457L72.043 76.1346C72.3683 77.3424 72.8184 78.519 73.3711 79.6421L102.678 56.4404C101.729 55.6515 100.691 54.9474 99.5677 54.3457Z" fill="#EBEBEB"/>
<path d="M106.896 61.3555L77.1875 84.8736C77.3524 85.034 77.5218 85.1945 77.6911 85.3505L107.239 61.9571C107.132 61.7566 107.021 61.5516 106.896 61.3555Z" fill="#EBEBEB"/>
<path d="M107.738 79.3926L94.5547 89.8302C95.1118 89.7099 95.6689 89.5628 96.2126 89.389L106.935 80.899C107.225 80.4132 107.493 79.9096 107.738 79.3926Z" fill="#EBEBEB"/>
</g>
<path d="M41.4985 50.5542C38.6997 52.4839 26.5462 62.3244 25.1023 67.9844C24.2154 71.4562 30.3968 83.6453 32.0681 86.5645C32.799 87.8347 41.5387 83.4849 41.864 81.9518C42.1893 80.4187 35.8964 69.4017 35.785 68.234C35.785 68.234 41.4139 59.1646 44.4043 54.3335C47.2299 49.7698 46.7263 46.9442 41.4985 50.5497V50.5542Z" fill="#EB9481"/>
<path d="M45.4551 90.2787C46.4489 91.8207 49.0294 93.0285 48.1514 94.0714C47.367 95.0028 45.6601 93.9911 45.6601 93.9911C45.6601 93.9911 47.2155 95.7515 46.0879 96.5092C44.9604 97.2713 43.3159 95.7827 43.3159 95.7827C43.3159 95.7827 44.6752 97.1911 43.4986 97.8685C42.322 98.5459 40.6909 97.5342 40.6909 97.5342C40.6909 97.5342 40.8023 98.2027 39.7549 98.3097C38.2575 98.4612 36.0024 96.1125 35.111 94.6106C34.2241 93.1042 32.0849 86.9406 31.7774 85.9913L41.3861 80.2109C41.3861 80.2109 44.1983 82.1585 45.5041 83.3217C46.8099 84.4849 50.05 89.5032 48.8556 90.3946C47.6656 91.2814 45.4373 87.6982 44.7019 86.9406C43.9665 86.1829 43.6635 86.2231 43.7303 86.8247C43.7749 87.2169 45.005 89.6057 45.4462 90.2876L45.4551 90.2787Z" fill="#EB9481"/>
<path d="M45.6056 93.9004C43.3283 92.3227 42.6018 91.2397 41.5322 88.7306C41.5099 88.6816 41.4341 88.7038 41.452 88.7529C42.2765 91.3066 42.9895 92.7951 45.5343 94.0118C45.6591 94.0697 45.7126 93.9717 45.6056 93.8959V93.9004Z" fill="#263238"/>
<path d="M43.4281 95.8203C41.2041 93.9752 40.4064 92.8076 39.0961 90.2628C39.0783 90.2271 39.0159 90.2539 39.0293 90.294C40.1078 92.9012 40.8521 94.3674 43.3166 95.9184C43.4281 95.9897 43.5306 95.905 43.4281 95.8203Z" fill="#263238"/>
<path d="M40.6846 97.4926C38.6613 95.5539 37.7298 94.3105 36.7761 91.6721C36.7538 91.6097 36.6602 91.6364 36.678 91.7033C37.3911 94.4843 38.5409 96.0441 40.6222 97.546C40.7648 97.6485 40.8139 97.6129 40.6891 97.4926H40.6846Z" fill="#263238"/>
<path d="M41.0796 61.1597L32.1171 57.318C32.1171 57.318 40.4378 50.5438 43.4461 49.2469C46.8332 47.7806 46.8421 49.8352 45.5764 53.1064C44.3107 56.3776 41.0841 61.1642 41.0841 61.1642L41.0796 61.1597Z" fill="#FFC727"/>
<path d="M37.9461 52.7997C37.9327 53.0582 37.7233 53.2587 37.4603 53.2587C37.4202 53.2587 37.3846 53.2543 37.3489 53.2454C37.545 53.0983 37.7456 52.9512 37.9461 52.7997ZM41.7254 52.2827C41.458 52.2827 41.2352 52.5011 41.2352 52.773C41.2352 53.0448 41.4536 53.2632 41.7254 53.2632C41.9973 53.2632 42.2157 53.0448 42.2157 52.773C42.2157 52.5011 41.9973 52.2827 41.7254 52.2827ZM45.5003 52.7685C45.5003 52.8755 45.5315 52.9735 45.5939 53.0537C45.6919 52.7952 45.7855 52.5412 45.8613 52.3005C45.6518 52.3585 45.5003 52.5457 45.5003 52.7685ZM43.8557 49.2031C43.5883 49.2031 43.3655 49.4215 43.3655 49.6934C43.3655 49.9652 43.5839 50.1836 43.8557 50.1836C44.1276 50.1836 44.346 49.9652 44.346 49.6934C44.346 49.4215 44.1276 49.2031 43.8557 49.2031ZM37.4603 58.4553C37.1929 58.4553 36.9701 58.6737 36.9701 58.9455C36.9701 59.2174 37.1885 59.4358 37.4603 59.4358C37.7322 59.4358 37.9506 59.2174 37.9506 58.9455C37.9506 58.6737 37.7322 58.4553 37.4603 58.4553ZM41.7254 58.4553C41.458 58.4553 41.2352 58.6737 41.2352 58.9455C41.2352 59.2174 41.4536 59.4358 41.7254 59.4358C41.9973 59.4358 42.2157 59.2174 42.2157 58.9455C42.2157 58.6737 41.9973 58.4553 41.7254 58.4553ZM35.33 55.3757C35.0626 55.3757 34.8398 55.5941 34.8398 55.8659C34.8398 56.1378 35.0582 56.3562 35.33 56.3562C35.6019 56.3562 35.8203 56.1378 35.8203 55.8659C35.8203 55.5941 35.6019 55.3757 35.33 55.3757ZM39.5951 55.3757C39.3277 55.3757 39.1049 55.5941 39.1049 55.8659C39.1049 56.1378 39.3232 56.3562 39.5951 56.3562C39.867 56.3562 40.0853 56.1378 40.0853 55.8659C40.0853 55.5941 39.867 55.3757 39.5951 55.3757ZM43.8557 55.3757C43.5883 55.3757 43.37 55.5985 43.37 55.8659C43.37 56.1333 43.5883 56.3562 43.8557 56.3562C43.9137 56.3562 43.9716 56.3473 44.0251 56.325C44.1276 56.1333 44.2301 55.9461 44.3326 55.7545C44.2836 55.5406 44.0875 55.3757 43.8557 55.3757Z" fill="white"/>
<path d="M34.0588 56.2629C34.3886 56.3476 37.2008 57.5019 37.8069 57.7649C38.413 58.0278 40.8998 59.0841 41.5015 59.4094C41.5282 59.4228 41.5149 59.4629 41.4837 59.454C40.833 59.2489 38.3239 58.1927 37.6999 57.9342C37.076 57.6802 34.3217 56.4769 34.0365 56.2986C34.0142 56.2852 34.0365 56.254 34.0588 56.2585V56.2629Z" fill="#263238"/>
<path d="M40.3724 60.849C40.6487 60.947 41.0766 61.1119 41.0766 61.1119C41.7184 60.1804 44.535 55.1711 45.2347 53.9722C45.2436 53.9544 45.2748 53.9722 45.2615 53.9901C44.9094 54.6942 44.5528 55.3895 44.1918 56.0892C44.2542 56.009 44.3122 55.9332 44.3746 55.853C44.5885 55.5722 44.8113 55.2959 45.0163 55.0062C45.0342 54.9839 45.0743 55.0062 45.0564 55.0285C44.8737 55.336 44.6865 55.639 44.4682 55.9198C44.3122 56.1159 44.1473 56.3031 43.9779 56.4858C43.7685 56.8825 43.559 57.2836 43.3406 57.6758C42.6632 58.8835 42.008 60.1582 41.237 61.308C41.237 61.308 40.6265 61.0941 40.3368 60.898C40.3011 60.8757 40.3279 60.8267 40.3724 60.84V60.849Z" fill="#263238"/>
<path d="M67.5693 88.8951C66.5398 89.8132 65.488 89.158 65.488 89.158C65.488 89.158 65.7331 90.8338 64.5476 91.5914C63.937 91.9792 62.7783 91.3418 62.7783 91.3418C62.7783 91.3418 62.9164 92.6922 61.8201 93.2983C60.9466 93.7797 59.9171 93.0711 59.9171 93.0711C59.9171 93.0711 59.4446 94.4303 58.3973 94.6354C56.267 95.0498 51.3602 88.0127 53.1963 85.1158C54.052 83.7654 55.1573 85.5526 55.1573 85.5526C55.1573 85.5526 54.1857 82.6022 55.6119 81.5549C57.038 80.5075 58.3349 82.9097 58.3349 82.9097C58.3349 82.9097 57.4213 80.044 59.0079 79.1037C60.6613 78.1277 61.5438 80.7527 61.5438 80.7527C61.5438 80.7527 61.5126 78.4485 62.8942 78.0073C65.1715 77.2809 64.9977 82.4329 66.4462 83.7253L69.7664 82.3437C69.7664 82.3437 68.7191 87.879 67.5737 88.8996L67.5693 88.8951Z" fill="#EB9481"/>
<path d="M59.7338 92.98C59.7338 92.98 59.7249 93.0335 59.7026 93.0112C57.5233 91.0903 55.7183 88.3093 55.0766 85.457C55.0543 85.3635 55.1969 85.2877 55.2415 85.3857C56.4626 88.1979 57.7729 90.5956 59.7338 92.9755V92.98Z" fill="#263238"/>
<path d="M62.7819 91.3817C62.8042 91.4085 62.7596 91.4441 62.7329 91.4174C60.5 89.4252 58.5525 86.2387 58.2004 82.8649C58.187 82.7491 58.294 82.6332 58.3162 82.7669C58.7218 84.9908 61.0036 89.2514 62.7819 91.3817Z" fill="#263238"/>
<path d="M61.5877 80.4996C62.0512 83.7218 63.4997 86.4716 65.3938 89.0832C65.4205 89.1189 65.367 89.1501 65.3403 89.1278C64.0657 88.1028 63.0317 86.3156 62.3454 84.8538C61.6858 83.4544 61.3738 82.0594 61.4763 80.5219C61.4763 80.4639 61.5788 80.4372 61.5877 80.5041V80.4996Z" fill="#263238"/>
<path d="M55.1093 85.3694C54.8998 84.7856 54.7795 84.1661 54.7528 83.5422C54.7305 82.9227 54.8374 82.2452 55.2608 81.7283C55.4748 81.4787 55.7466 81.2692 56.0853 81.1801C56.4285 81.0954 56.794 81.1801 57.0747 81.3539C57.6452 81.7104 58.0285 82.2363 58.3404 82.7979L58.0507 82.9138C57.8858 82.2898 57.8056 81.657 57.8502 81.0107C57.9037 80.3779 58.1042 79.7005 58.5989 79.228C58.844 79.0008 59.1293 78.8091 59.468 78.7289C59.8067 78.6442 60.1855 78.72 60.4707 78.9072C61.0368 79.2949 61.3443 79.8832 61.576 80.4759L61.3665 80.5071C61.3933 80.1952 61.4512 79.8921 61.5315 79.5935C61.6117 79.2949 61.732 79.0052 61.8969 78.7423C62.0573 78.4793 62.2802 78.2431 62.552 78.096C62.8284 77.9445 63.1448 77.9089 63.4434 77.9401C63.1403 77.9311 62.8373 78.0024 62.5877 78.154C62.3381 78.3144 62.1465 78.5462 62.0083 78.8047C61.7365 79.3261 61.6117 79.9277 61.5805 80.5116L61.5537 80.9751L61.371 80.5428C61.1393 79.9991 60.8005 79.4464 60.3192 79.1434C60.0786 78.9918 59.8022 78.9428 59.5393 79.0097C59.2719 79.0721 59.0223 79.2414 58.8173 79.4375C58.4028 79.8431 58.2246 80.4358 58.1844 81.0286C58.1399 81.6213 58.2067 82.2408 58.3538 82.8157L58.6747 84.0591L58.0686 82.9271C57.7923 82.4101 57.4179 81.8932 56.9321 81.5901C56.687 81.443 56.4151 81.3628 56.1433 81.4208C55.8759 81.4787 55.6218 81.648 55.4302 81.8575C55.0335 82.2943 54.9132 82.9227 54.8909 83.5288C54.8731 84.1394 54.9622 84.7588 55.1138 85.3605L55.1093 85.3694Z" fill="#263238"/>
<path d="M46.9933 50.3408C46.9532 50.7954 47.9605 53.7903 50.0284 54.1691C51.1024 54.3652 51.7754 51.455 51.7754 51.455L51.9136 51.2188L53.8612 47.9253L50.5587 43.8919L50.0685 43.3438C50.0685 43.3438 49.5961 44.2797 49.0167 45.4518C48.99 45.5053 48.9632 45.5587 48.9365 45.6167C48.9008 45.6835 48.8696 45.7415 48.8384 45.8083C48.7493 45.9821 48.6602 46.1604 48.5755 46.3387C48.5086 46.4768 48.4462 46.6061 48.3794 46.7531C48.3125 46.8958 48.2501 47.0384 48.1833 47.181C47.546 48.6161 47.0112 50.1447 46.9933 50.3408Z" fill="#EB9481"/>
<path d="M49.0195 45.4518C49.122 48.6116 51.0028 50.4968 51.9164 51.2188L53.864 47.9253L50.5616 43.8919L50.0713 43.3438C50.0713 43.3438 49.5989 44.2797 49.0195 45.4518Z" fill="#263238"/>
<path d="M60.8128 44.4615C59.1459 50.9683 55.0636 50.7053 53.6597 50.3443C52.3851 50.019 48.0933 48.7399 49.0738 42.0949C50.0587 35.45 53.6107 34.1664 56.561 34.7636C59.5114 35.3564 62.4751 37.9546 60.8128 44.4615Z" fill="#EB9481"/>
<path d="M49.324 41.6854C50.8303 42.2291 51.6504 39.8403 51.6504 39.8403C51.6504 39.8403 53.4197 40.286 54.5116 37.563C54.5116 37.563 54.7522 39.5195 56.9539 40.6737C57.4218 40.9189 56.2185 39.0649 56.2185 39.0649C56.2185 39.0649 57.5689 41.5428 61.4685 42.1489C61.7448 42.1935 62.5471 38.1334 60.1315 35.807C57.716 33.4806 54.8637 33.3246 52.4481 34.5146C52.4481 34.5146 50.5852 34.675 49.6493 36.5869C48.7134 38.4989 48.7312 41.4715 49.315 41.681L49.324 41.6854Z" fill="#263238"/>
<path d="M50.1621 42.4382C50.1621 42.4382 49.4713 39.9737 48.4017 40.1519C47.3321 40.3302 47.3677 43.5658 48.2813 44.3234C49.1994 45.0855 49.9214 44.2521 49.9214 44.2521L50.1621 42.4382Z" fill="#EB9481"/>
<path d="M48.4329 41.0782C48.4329 41.0782 48.4062 41.0916 48.4195 41.105C49.0524 41.6621 49.2039 42.4866 49.2262 43.2932C49.1014 42.9412 48.8563 42.6871 48.3972 42.8208C48.375 42.8297 48.3794 42.8654 48.4017 42.8654C48.727 42.9055 48.9276 43.0347 49.0479 43.3512C49.1326 43.574 49.1549 43.8236 49.1905 44.0598C49.2039 44.14 49.3332 44.1445 49.3332 44.0598C49.3332 44.0553 49.3332 44.0464 49.3332 44.042C49.6808 43.1061 49.4134 41.5328 48.4329 41.0827V41.0782Z" fill="#263238"/>
<path d="M59.6848 43.6625C59.5422 43.5956 59.4174 43.5109 59.2837 43.4307C59.1322 43.3416 58.9985 43.2836 58.9183 43.1143C58.8737 43.0251 58.9272 42.887 59.0074 42.838C59.2035 42.7221 59.4174 42.7845 59.6046 42.887C59.8096 42.9984 59.9389 43.1366 60.028 43.3505C60.1127 43.56 59.872 43.7516 59.6804 43.6625H59.6848Z" fill="#263238"/>
<path d="M55.7619 41.5504C55.9135 41.5905 56.065 41.6039 56.221 41.6262C56.3948 41.6529 56.533 41.693 56.7023 41.6173C56.7915 41.5772 56.8405 41.439 56.8093 41.3454C56.7335 41.1315 56.5285 41.0424 56.3146 41.0023C56.0873 40.9577 55.9001 40.98 55.6951 41.0869C55.4945 41.1939 55.5614 41.4925 55.7619 41.5504Z" fill="#263238"/>
<path d="M56.1586 43.4884C56.1586 43.4884 56.1185 43.4973 56.114 43.5151C55.9937 43.9564 55.7842 44.4421 55.3475 44.4689C55.3341 44.4689 55.3297 44.4912 55.3475 44.4956C55.8511 44.5758 56.123 43.9252 56.1631 43.4884H56.1586Z" fill="#263238"/>
<path d="M55.9046 42.9128C55.2183 42.6454 54.7325 44.0448 55.3743 44.29C56.0027 44.5306 56.484 43.1357 55.9046 42.9128Z" fill="#263238"/>
<path d="M55.6068 42.8921C55.4597 42.9278 55.2903 43.0258 55.1388 42.9902C54.965 42.9501 54.8848 42.7584 54.8224 42.5802C54.8179 42.5623 54.8001 42.5712 54.7912 42.5891C54.6931 42.8565 54.7021 43.164 54.9739 43.3021C55.2235 43.4269 55.4909 43.2576 55.6513 43.0125C55.6825 42.9679 55.6647 42.8788 55.6023 42.8921H55.6068Z" fill="#263238"/>
<path d="M54.9697 46.9823C55.0321 47.1204 55.0811 47.2987 55.2282 47.3745C55.3708 47.4458 55.5714 47.4458 55.7274 47.4502C55.7407 47.4502 55.7496 47.4681 55.7363 47.4814C55.5625 47.6018 55.2906 47.6107 55.1034 47.4993C54.9251 47.3878 54.8939 47.1873 54.9162 46.9912C54.9162 46.9645 54.9563 46.9689 54.9653 46.9912L54.9697 46.9823Z" fill="#263238"/>
<path d="M57.3083 46.0149C57.3083 46.0149 57.1835 46.6923 57.081 46.9999C57.0721 47.0266 56.9919 47.0177 56.8849 46.9909C56.8805 46.9909 56.876 46.9909 56.8715 46.9909C56.3055 46.8974 55.8198 46.5274 55.6415 45.9793C55.6326 45.9436 55.6816 45.9258 55.6994 45.9525C56.0025 46.3804 56.4259 46.6077 56.9027 46.7726C56.9518 46.6968 57.081 45.6049 57.13 45.6183C57.3038 45.6584 57.5935 45.8812 57.7718 46.006C58.0749 44.6021 58.1506 43.1582 58.4715 41.7632C58.4849 41.7142 58.5562 41.7231 58.5562 41.7721C58.5829 43.2874 58.271 44.9141 57.9946 46.3715C57.9634 46.5542 57.4108 46.113 57.3038 46.0238L57.3083 46.0149Z" fill="#263238"/>
<path d="M60.05 44.5635C59.952 44.4832 59.8361 44.4298 59.7202 44.3807C59.5999 44.3362 59.4751 44.3094 59.3414 44.2961C59.2122 44.2916 59.074 44.3005 58.9403 44.3495C58.8066 44.3941 58.6863 44.4743 58.5882 44.5768L58.4099 44.7596L58.664 44.8041C58.8333 44.8353 59.0205 44.8843 59.1854 44.9512C59.3548 45.0225 59.5152 45.1116 59.6445 45.2721C59.6043 45.0715 59.4573 44.8933 59.2835 44.7774C59.1096 44.6571 58.918 44.5813 58.7041 44.5412L58.7798 44.7685C58.9269 44.6303 59.1186 44.5501 59.3414 44.5278C59.5642 44.51 59.8004 44.5278 60.0456 44.5679L60.05 44.5635Z" fill="#263238"/>
<path d="M59.0685 45.3432C58.8992 45.2273 58.7298 45.1471 58.5917 44.9911C58.5605 44.9555 58.4401 44.804 58.458 44.7772C58.4936 44.697 58.5649 44.6123 58.6273 44.541C58.5471 44.6034 58.4624 44.6569 58.4045 44.7549C58.3911 44.8485 58.4357 44.9599 58.5293 45.0535C58.6763 45.2051 58.8947 45.3031 59.0685 45.3432Z" fill="#263238"/>
<path d="M90.0841 30.1483C89.4468 36.2495 83.9784 40.6795 77.8816 40.0422C75.417 39.7837 73.2243 38.7364 71.5263 37.1765L65.9688 37.9921L68.7497 33.1877C68.0768 31.5477 67.7915 29.7204 67.9876 27.8397C68.625 21.7384 74.0934 17.3084 80.1902 17.9458C86.2914 18.5831 90.7214 24.0515 90.0841 30.1483Z" fill="white"/>
<path d="M90.0835 30.1488C89.8517 32.1766 89.1119 34.1643 87.8417 35.7776C87.552 36.201 87.1732 36.5531 86.8345 36.9363C86.4468 37.2706 86.0902 37.6405 85.6624 37.9302C84.8513 38.5541 83.9376 39.0444 82.9839 39.4232C82.0346 39.8243 81.014 40.0115 79.9934 40.1363C79.4809 40.163 78.9639 40.212 78.4514 40.1675C77.9344 40.1541 77.4219 40.1006 76.9138 40.007C74.8816 39.6371 72.9563 38.6878 71.4187 37.2929L71.5479 37.333L65.9949 38.1842L65.5938 38.2466L65.7988 37.8901L68.5619 33.0768L68.5486 33.2685C67.2026 30.0997 67.5057 26.3204 69.2349 23.3701C70.095 21.8904 71.2984 20.6158 72.7156 19.6665C74.1328 18.7128 75.7729 18.1156 77.4576 17.8883C79.1422 17.6655 80.8714 17.817 82.4803 18.3518C84.0847 18.8911 85.5599 19.8002 86.7632 20.9768C89.2144 23.3077 90.4489 26.8062 90.0879 30.1488H90.0835ZM90.0835 30.1488C90.4222 26.8018 89.1654 23.3255 86.7097 21.0258C85.493 19.876 84.0178 19.0025 82.4268 18.4989C80.8313 17.9997 79.1288 17.8794 77.4843 18.129C75.8442 18.3785 74.2532 18.9936 72.8983 19.9429C71.5435 20.8966 70.4026 22.14 69.5736 23.5662C68.7313 24.9923 68.2945 26.6279 68.1653 28.268C68.0628 29.9125 68.3302 31.5794 68.9452 33.108L68.9853 33.2061L68.9318 33.2952L66.133 38.0906L65.9325 37.7965L71.4945 37.0166L71.5702 37.0077L71.6237 37.0611C73.0944 38.4427 74.9529 39.4054 76.9406 39.802C77.4353 39.9001 77.9389 39.9669 78.4469 39.9847C78.955 40.0382 79.4586 40.0026 79.9667 39.9847C80.9739 39.8822 81.9856 39.7129 82.9349 39.3296C83.8841 38.9731 84.8067 38.5051 85.6134 37.8856C86.0412 37.6004 86.3977 37.2394 86.7855 36.9051C87.1286 36.5263 87.503 36.1787 87.7971 35.7598C89.0718 34.1598 89.825 32.181 90.0701 30.1532L90.0835 30.1488Z" fill="#263238"/>
<path d="M79.8589 30.6392V31.9049C79.8589 32.4487 79.4489 32.8587 78.9052 32.8587C78.4016 32.8587 77.9514 32.4487 77.9514 31.9049V29.8816C77.9514 29.8816 77.9693 29.8638 77.9693 29.8415C77.9693 29.8415 77.9633 29.8281 77.9514 29.8014C77.9514 29.2933 78.3971 28.8476 78.9052 28.8476C80.1308 28.8476 81.1246 27.8761 81.1246 26.6683C81.1246 25.4605 80.1308 24.489 78.9052 24.489C78.1074 24.489 77.4077 24.9168 77.0378 25.5586C76.766 26.0265 76.1821 26.1825 75.7142 25.9107C75.2685 25.6388 75.1125 25.0728 75.3844 24.6093C76.0841 23.4015 77.4077 22.5859 78.9052 22.5859C81.1647 22.5859 83.0098 24.4132 83.0098 26.6728C83.0098 28.5981 81.6684 30.2158 79.8589 30.6437V30.6392ZM79.8589 34.8999V35.2519C79.8589 35.7957 79.4489 36.2057 78.9052 36.2057C78.4016 36.2057 77.9514 35.7957 77.9514 35.2519V34.8999C77.9514 34.374 78.3971 33.9461 78.9052 33.9461C79.4489 33.9461 79.8589 34.374 79.8589 34.8999Z" fill="#FFC727"/>
</g>
<path d="M37.7188 213.668V212.121C37.8958 212.277 38.1068 212.418 38.3516 212.543C38.6016 212.668 38.862 212.775 39.1328 212.863C39.4089 212.947 39.6849 213.012 39.9609 213.059C40.237 213.106 40.4922 213.129 40.7266 213.129C41.5339 213.129 42.1354 212.981 42.5312 212.684C42.9323 212.382 43.1328 211.949 43.1328 211.387C43.1328 211.085 43.0651 210.822 42.9297 210.598C42.7995 210.374 42.6172 210.171 42.3828 209.988C42.1484 209.801 41.8698 209.624 41.5469 209.457C41.2292 209.285 40.8854 209.106 40.5156 208.918C40.125 208.72 39.7604 208.52 39.4219 208.317C39.0833 208.113 38.7891 207.889 38.5391 207.645C38.2891 207.4 38.0911 207.124 37.9453 206.817C37.8047 206.504 37.7344 206.139 37.7344 205.723C37.7344 205.212 37.8464 204.77 38.0703 204.395C38.2943 204.014 38.5885 203.702 38.9531 203.457C39.3177 203.212 39.7318 203.03 40.1953 202.91C40.6641 202.79 41.1406 202.731 41.625 202.731C42.7292 202.731 43.5339 202.863 44.0391 203.129V204.606C43.3776 204.147 42.5286 203.918 41.4922 203.918C41.2057 203.918 40.9193 203.949 40.6328 204.012C40.3464 204.069 40.0911 204.165 39.8672 204.301C39.6432 204.436 39.4609 204.611 39.3203 204.824C39.1797 205.038 39.1094 205.298 39.1094 205.606C39.1094 205.892 39.1615 206.139 39.2656 206.348C39.375 206.556 39.5339 206.746 39.7422 206.918C39.9505 207.09 40.2031 207.257 40.5 207.418C40.8021 207.58 41.1484 207.757 41.5391 207.949C41.9401 208.147 42.3203 208.356 42.6797 208.574C43.0391 208.793 43.3542 209.035 43.625 209.301C43.8958 209.567 44.1094 209.861 44.2656 210.184C44.4271 210.507 44.5078 210.876 44.5078 211.293C44.5078 211.845 44.3984 212.314 44.1797 212.699C43.9661 213.08 43.6745 213.389 43.3047 213.629C42.9401 213.869 42.5182 214.04 42.0391 214.145C41.5599 214.254 41.0547 214.309 40.5234 214.309C40.3464 214.309 40.1276 214.293 39.8672 214.262C39.6068 214.236 39.3411 214.194 39.0703 214.137C38.7995 214.085 38.5417 214.02 38.2969 213.942C38.0573 213.858 37.8646 213.767 37.7188 213.668ZM53 210.442H47.3516C47.3724 211.332 47.612 212.02 48.0703 212.504C48.5286 212.988 49.1589 213.231 49.9609 213.231C50.862 213.231 51.6901 212.934 52.4453 212.34V213.543C51.7422 214.054 50.8125 214.309 49.6562 214.309C48.526 214.309 47.638 213.947 46.9922 213.223C46.3464 212.494 46.0234 211.47 46.0234 210.152C46.0234 208.908 46.375 207.895 47.0781 207.113C47.7865 206.327 48.6641 205.934 49.7109 205.934C50.7578 205.934 51.5677 206.272 52.1406 206.949C52.7135 207.626 53 208.567 53 209.77V210.442ZM51.6875 209.356C51.6823 208.616 51.5026 208.04 51.1484 207.629C50.7995 207.218 50.3125 207.012 49.6875 207.012C49.0833 207.012 48.5703 207.228 48.1484 207.66C47.7266 208.093 47.4661 208.658 47.3672 209.356H51.6875ZM56.2266 214.121H54.9453V202.277H56.2266V214.121ZM65.25 210.442H59.6016C59.6224 211.332 59.862 212.02 60.3203 212.504C60.7786 212.988 61.4089 213.231 62.2109 213.231C63.112 213.231 63.9401 212.934 64.6953 212.34V213.543C63.9922 214.054 63.0625 214.309 61.9062 214.309C60.776 214.309 59.888 213.947 59.2422 213.223C58.5964 212.494 58.2734 211.47 58.2734 210.152C58.2734 208.908 58.625 207.895 59.3281 207.113C60.0365 206.327 60.9141 205.934 61.9609 205.934C63.0078 205.934 63.8177 206.272 64.3906 206.949C64.9635 207.626 65.25 208.567 65.25 209.77V210.442ZM63.9375 209.356C63.9323 208.616 63.7526 208.04 63.3984 207.629C63.0495 207.218 62.5625 207.012 61.9375 207.012C61.3333 207.012 60.8203 207.228 60.3984 207.66C59.9766 208.093 59.7161 208.658 59.6172 209.356H63.9375ZM72.6484 213.754C72.0339 214.124 71.3047 214.309 70.4609 214.309C69.3203 214.309 68.3984 213.939 67.6953 213.199C66.9974 212.455 66.6484 211.491 66.6484 210.309C66.6484 208.991 67.026 207.934 67.7812 207.137C68.5365 206.335 69.5443 205.934 70.8047 205.934C71.5078 205.934 72.1276 206.064 72.6641 206.324V207.637C72.0703 207.22 71.4349 207.012 70.7578 207.012C69.9401 207.012 69.2682 207.306 68.7422 207.895C68.2214 208.478 67.9609 209.246 67.9609 210.199C67.9609 211.137 68.2057 211.876 68.6953 212.418C69.1901 212.96 69.8516 213.231 70.6797 213.231C71.3776 213.231 72.0339 212.999 72.6484 212.535V213.754ZM78.2969 214.043C77.9948 214.21 77.5964 214.293 77.1016 214.293C75.7005 214.293 75 213.512 75 211.949V207.215H73.625V206.121H75V204.168L76.2812 203.754V206.121H78.2969V207.215H76.2812V211.723C76.2812 212.259 76.3724 212.642 76.5547 212.871C76.737 213.1 77.0391 213.215 77.4609 213.215C77.7839 213.215 78.0625 213.126 78.2969 212.949V214.043ZM88.5703 207.418C88.3464 207.246 88.0234 207.16 87.6016 207.16C87.0547 207.16 86.5964 207.418 86.2266 207.934C85.862 208.449 85.6797 209.152 85.6797 210.043V214.121H84.3984V206.121H85.6797V207.77H85.7109C85.8932 207.207 86.1719 206.77 86.5469 206.457C86.9219 206.139 87.3411 205.981 87.8047 205.981C88.138 205.981 88.3932 206.017 88.5703 206.09V207.418ZM96.3906 210.442H90.7422C90.763 211.332 91.0026 212.02 91.4609 212.504C91.9193 212.988 92.5495 213.231 93.3516 213.231C94.2526 213.231 95.0807 212.934 95.8359 212.34V213.543C95.1328 214.054 94.2031 214.309 93.0469 214.309C91.9167 214.309 91.0286 213.947 90.3828 213.223C89.737 212.494 89.4141 211.47 89.4141 210.152C89.4141 208.908 89.7656 207.895 90.4688 207.113C91.1771 206.327 92.0547 205.934 93.1016 205.934C94.1484 205.934 94.9583 206.272 95.5312 206.949C96.1042 207.626 96.3906 208.567 96.3906 209.77V210.442ZM95.0781 209.356C95.0729 208.616 94.8932 208.04 94.5391 207.629C94.1901 207.218 93.7031 207.012 93.0781 207.012C92.474 207.012 91.9609 207.228 91.5391 207.66C91.1172 208.093 90.8568 208.658 90.7578 209.356H95.0781ZM97.8516 213.832V212.457C98.5495 212.973 99.3177 213.231 100.156 213.231C101.281 213.231 101.844 212.856 101.844 212.106C101.844 211.892 101.794 211.712 101.695 211.567C101.602 211.415 101.471 211.283 101.305 211.168C101.143 211.054 100.951 210.952 100.727 210.863C100.508 210.77 100.271 210.673 100.016 210.574C99.6615 210.434 99.349 210.293 99.0781 210.152C98.8125 210.007 98.5885 209.845 98.4062 209.668C98.2292 209.486 98.0938 209.28 98 209.051C97.9115 208.822 97.8672 208.554 97.8672 208.246C97.8672 207.871 97.9531 207.54 98.125 207.254C98.2969 206.962 98.526 206.72 98.8125 206.527C99.099 206.33 99.4245 206.181 99.7891 206.082C100.159 205.983 100.539 205.934 100.93 205.934C101.622 205.934 102.242 206.054 102.789 206.293V207.59C102.201 207.205 101.523 207.012 100.758 207.012C100.518 207.012 100.302 207.04 100.109 207.098C99.9167 207.15 99.75 207.225 99.6094 207.324C99.474 207.423 99.3672 207.543 99.2891 207.684C99.2161 207.819 99.1797 207.97 99.1797 208.137C99.1797 208.345 99.2161 208.52 99.2891 208.66C99.3672 208.801 99.4792 208.926 99.625 209.035C99.7708 209.145 99.9479 209.244 100.156 209.332C100.365 209.421 100.602 209.517 100.867 209.621C101.221 209.757 101.539 209.897 101.82 210.043C102.102 210.184 102.341 210.345 102.539 210.527C102.737 210.705 102.888 210.91 102.992 211.145C103.102 211.379 103.156 211.658 103.156 211.981C103.156 212.376 103.068 212.72 102.891 213.012C102.719 213.304 102.487 213.546 102.195 213.738C101.904 213.931 101.568 214.074 101.188 214.168C100.807 214.262 100.409 214.309 99.9922 214.309C99.1693 214.309 98.4557 214.15 97.8516 213.832ZM108.477 214.309C107.294 214.309 106.349 213.936 105.641 213.192C104.938 212.442 104.586 211.449 104.586 210.215C104.586 208.871 104.953 207.822 105.688 207.067C106.422 206.311 107.414 205.934 108.664 205.934C109.857 205.934 110.786 206.301 111.453 207.035C112.125 207.77 112.461 208.788 112.461 210.09C112.461 211.366 112.099 212.389 111.375 213.16C110.656 213.926 109.69 214.309 108.477 214.309ZM108.57 207.012C107.747 207.012 107.096 207.293 106.617 207.856C106.138 208.413 105.898 209.184 105.898 210.168C105.898 211.116 106.141 211.863 106.625 212.41C107.109 212.957 107.758 213.231 108.57 213.231C109.398 213.231 110.034 212.962 110.477 212.426C110.924 211.889 111.148 211.126 111.148 210.137C111.148 209.137 110.924 208.366 110.477 207.824C110.034 207.283 109.398 207.012 108.57 207.012ZM120.977 214.121H119.695V212.856H119.664C119.133 213.824 118.31 214.309 117.195 214.309C115.289 214.309 114.336 213.173 114.336 210.902V206.121H115.609V210.699C115.609 212.387 116.255 213.231 117.547 213.231C118.172 213.231 118.685 213.001 119.086 212.543C119.492 212.08 119.695 211.475 119.695 210.731V206.121H120.977V214.121ZM127.742 207.418C127.518 207.246 127.195 207.16 126.773 207.16C126.227 207.16 125.768 207.418 125.398 207.934C125.034 208.449 124.852 209.152 124.852 210.043V214.121H123.57V206.121H124.852V207.77H124.883C125.065 207.207 125.344 206.77 125.719 206.457C126.094 206.139 126.513 205.981 126.977 205.981C127.31 205.981 127.565 206.017 127.742 206.09V207.418ZM134.586 213.754C133.971 214.124 133.242 214.309 132.398 214.309C131.258 214.309 130.336 213.939 129.633 213.199C128.935 212.455 128.586 211.491 128.586 210.309C128.586 208.991 128.964 207.934 129.719 207.137C130.474 206.335 131.482 205.934 132.742 205.934C133.445 205.934 134.065 206.064 134.602 206.324V207.637C134.008 207.22 133.372 207.012 132.695 207.012C131.878 207.012 131.206 207.306 130.68 207.895C130.159 208.478 129.898 209.246 129.898 210.199C129.898 211.137 130.143 211.876 130.633 212.418C131.128 212.96 131.789 213.231 132.617 213.231C133.315 213.231 133.971 212.999 134.586 212.535V213.754ZM142.953 210.442H137.305C137.326 211.332 137.565 212.02 138.023 212.504C138.482 212.988 139.112 213.231 139.914 213.231C140.815 213.231 141.643 212.934 142.398 212.34V213.543C141.695 214.054 140.766 214.309 139.609 214.309C138.479 214.309 137.591 213.947 136.945 213.223C136.299 212.494 135.977 211.47 135.977 210.152C135.977 208.908 136.328 207.895 137.031 207.113C137.74 206.327 138.617 205.934 139.664 205.934C140.711 205.934 141.521 206.272 142.094 206.949C142.667 207.626 142.953 208.567 142.953 209.77V210.442ZM141.641 209.356C141.635 208.616 141.456 208.04 141.102 207.629C140.753 207.218 140.266 207.012 139.641 207.012C139.036 207.012 138.523 207.228 138.102 207.66C137.68 208.093 137.419 208.658 137.32 209.356H141.641ZM144.414 213.832V212.457C145.112 212.973 145.88 213.231 146.719 213.231C147.844 213.231 148.406 212.856 148.406 212.106C148.406 211.892 148.357 211.712 148.258 211.567C148.164 211.415 148.034 211.283 147.867 211.168C147.706 211.054 147.513 210.952 147.289 210.863C147.07 210.77 146.833 210.673 146.578 210.574C146.224 210.434 145.911 210.293 145.641 210.152C145.375 210.007 145.151 209.845 144.969 209.668C144.792 209.486 144.656 209.28 144.562 209.051C144.474 208.822 144.43 208.554 144.43 208.246C144.43 207.871 144.516 207.54 144.688 207.254C144.859 206.962 145.089 206.72 145.375 206.527C145.661 206.33 145.987 206.181 146.352 206.082C146.721 205.983 147.102 205.934 147.492 205.934C148.185 205.934 148.805 206.054 149.352 206.293V207.59C148.763 207.205 148.086 207.012 147.32 207.012C147.081 207.012 146.865 207.04 146.672 207.098C146.479 207.15 146.312 207.225 146.172 207.324C146.036 207.423 145.93 207.543 145.852 207.684C145.779 207.819 145.742 207.97 145.742 208.137C145.742 208.345 145.779 208.52 145.852 208.66C145.93 208.801 146.042 208.926 146.188 209.035C146.333 209.145 146.51 209.244 146.719 209.332C146.927 209.421 147.164 209.517 147.43 209.621C147.784 209.757 148.102 209.897 148.383 210.043C148.664 210.184 148.904 210.345 149.102 210.527C149.299 210.705 149.451 210.91 149.555 211.145C149.664 211.379 149.719 211.658 149.719 211.981C149.719 212.376 149.63 212.72 149.453 213.012C149.281 213.304 149.049 213.546 148.758 213.738C148.466 213.931 148.13 214.074 147.75 214.168C147.37 214.262 146.971 214.309 146.555 214.309C145.732 214.309 145.018 214.15 144.414 213.832ZM161.141 202.918L155.766 215.981H154.57L159.93 202.918H161.141ZM173.539 213.481C173.539 216.418 172.133 217.887 169.32 217.887C168.331 217.887 167.466 217.699 166.727 217.324V216.043C167.628 216.543 168.487 216.793 169.305 216.793C171.273 216.793 172.258 215.746 172.258 213.652V212.777H172.227C171.617 213.798 170.701 214.309 169.477 214.309C168.482 214.309 167.68 213.955 167.07 213.246C166.466 212.533 166.164 211.577 166.164 210.379C166.164 209.02 166.49 207.939 167.141 207.137C167.797 206.335 168.693 205.934 169.828 205.934C170.906 205.934 171.706 206.366 172.227 207.231H172.258V206.121H173.539V213.481ZM172.258 210.504V209.324C172.258 208.689 172.042 208.145 171.609 207.692C171.182 207.238 170.648 207.012 170.008 207.012C169.216 207.012 168.596 207.301 168.148 207.879C167.701 208.452 167.477 209.257 167.477 210.293C167.477 211.184 167.69 211.897 168.117 212.434C168.549 212.965 169.12 213.231 169.828 213.231C170.547 213.231 171.13 212.975 171.578 212.465C172.031 211.955 172.258 211.301 172.258 210.504ZM180.305 207.418C180.081 207.246 179.758 207.16 179.336 207.16C178.789 207.16 178.331 207.418 177.961 207.934C177.596 208.449 177.414 209.152 177.414 210.043V214.121H176.133V206.121H177.414V207.77H177.445C177.628 207.207 177.906 206.77 178.281 206.457C178.656 206.139 179.076 205.981 179.539 205.981C179.872 205.981 180.128 206.017 180.305 206.09V207.418ZM185.039 214.309C183.857 214.309 182.911 213.936 182.203 213.192C181.5 212.442 181.148 211.449 181.148 210.215C181.148 208.871 181.516 207.822 182.25 207.067C182.984 206.311 183.977 205.934 185.227 205.934C186.419 205.934 187.349 206.301 188.016 207.035C188.688 207.77 189.023 208.788 189.023 210.09C189.023 211.366 188.661 212.389 187.938 213.16C187.219 213.926 186.253 214.309 185.039 214.309ZM185.133 207.012C184.31 207.012 183.659 207.293 183.18 207.856C182.701 208.413 182.461 209.184 182.461 210.168C182.461 211.116 182.703 211.863 183.188 212.41C183.672 212.957 184.32 213.231 185.133 213.231C185.961 213.231 186.596 212.962 187.039 212.426C187.487 211.889 187.711 211.126 187.711 210.137C187.711 209.137 187.487 208.366 187.039 207.824C186.596 207.283 185.961 207.012 185.133 207.012ZM197.539 214.121H196.258V212.856H196.227C195.695 213.824 194.872 214.309 193.758 214.309C191.852 214.309 190.898 213.173 190.898 210.902V206.121H192.172V210.699C192.172 212.387 192.818 213.231 194.109 213.231C194.734 213.231 195.247 213.001 195.648 212.543C196.055 212.08 196.258 211.475 196.258 210.731V206.121H197.539V214.121ZM201.445 212.965H201.414V217.801H200.133V206.121H201.414V207.527H201.445C202.076 206.465 202.997 205.934 204.211 205.934C205.242 205.934 206.047 206.293 206.625 207.012C207.203 207.725 207.492 208.684 207.492 209.887C207.492 211.225 207.167 212.298 206.516 213.106C205.865 213.908 204.974 214.309 203.844 214.309C202.807 214.309 202.008 213.861 201.445 212.965ZM201.414 209.738V210.856C201.414 211.517 201.628 212.08 202.055 212.543C202.487 213.001 203.034 213.231 203.695 213.231C204.471 213.231 205.078 212.934 205.516 212.34C205.958 211.746 206.18 210.921 206.18 209.863C206.18 208.973 205.974 208.275 205.562 207.77C205.151 207.264 204.594 207.012 203.891 207.012C203.146 207.012 202.547 207.272 202.094 207.793C201.641 208.309 201.414 208.957 201.414 209.738ZM209.055 213.832V212.457C209.753 212.973 210.521 213.231 211.359 213.231C212.484 213.231 213.047 212.856 213.047 212.106C213.047 211.892 212.997 211.712 212.898 211.567C212.805 211.415 212.674 211.283 212.508 211.168C212.346 211.054 212.154 210.952 211.93 210.863C211.711 210.77 211.474 210.673 211.219 210.574C210.865 210.434 210.552 210.293 210.281 210.152C210.016 210.007 209.792 209.845 209.609 209.668C209.432 209.486 209.297 209.28 209.203 209.051C209.115 208.822 209.07 208.554 209.07 208.246C209.07 207.871 209.156 207.54 209.328 207.254C209.5 206.962 209.729 206.72 210.016 206.527C210.302 206.33 210.628 206.181 210.992 206.082C211.362 205.983 211.742 205.934 212.133 205.934C212.826 205.934 213.445 206.054 213.992 206.293V207.59C213.404 207.205 212.727 207.012 211.961 207.012C211.721 207.012 211.505 207.04 211.312 207.098C211.12 207.15 210.953 207.225 210.812 207.324C210.677 207.423 210.57 207.543 210.492 207.684C210.419 207.819 210.383 207.97 210.383 208.137C210.383 208.345 210.419 208.52 210.492 208.66C210.57 208.801 210.682 208.926 210.828 209.035C210.974 209.145 211.151 209.244 211.359 209.332C211.568 209.421 211.805 209.517 212.07 209.621C212.424 209.757 212.742 209.897 213.023 210.043C213.305 210.184 213.544 210.345 213.742 210.527C213.94 210.705 214.091 210.91 214.195 211.145C214.305 211.379 214.359 211.658 214.359 211.981C214.359 212.376 214.271 212.72 214.094 213.012C213.922 213.304 213.69 213.546 213.398 213.738C213.107 213.931 212.771 214.074 212.391 214.168C212.01 214.262 211.612 214.309 211.195 214.309C210.372 214.309 209.659 214.15 209.055 213.832ZM224.438 214.043C224.135 214.21 223.737 214.293 223.242 214.293C221.841 214.293 221.141 213.512 221.141 211.949V207.215H219.766V206.121H221.141V204.168L222.422 203.754V206.121H224.438V207.215H222.422V211.723C222.422 212.259 222.513 212.642 222.695 212.871C222.878 213.1 223.18 213.215 223.602 213.215C223.924 213.215 224.203 213.126 224.438 212.949V214.043ZM229.492 214.309C228.31 214.309 227.365 213.936 226.656 213.192C225.953 212.442 225.602 211.449 225.602 210.215C225.602 208.871 225.969 207.822 226.703 207.067C227.438 206.311 228.43 205.934 229.68 205.934C230.872 205.934 231.802 206.301 232.469 207.035C233.141 207.77 233.477 208.788 233.477 210.09C233.477 211.366 233.115 212.389 232.391 213.16C231.672 213.926 230.706 214.309 229.492 214.309ZM229.586 207.012C228.763 207.012 228.112 207.293 227.633 207.856C227.154 208.413 226.914 209.184 226.914 210.168C226.914 211.116 227.156 211.863 227.641 212.41C228.125 212.957 228.773 213.231 229.586 213.231C230.414 213.231 231.049 212.962 231.492 212.426C231.94 211.889 232.164 211.126 232.164 210.137C232.164 209.137 231.94 208.366 231.492 207.824C231.049 207.283 230.414 207.012 229.586 207.012ZM53.8281 237.832V236.457C54.526 236.973 55.2943 237.231 56.1328 237.231C57.2578 237.231 57.8203 236.856 57.8203 236.106C57.8203 235.892 57.7708 235.712 57.6719 235.567C57.5781 235.415 57.4479 235.283 57.2812 235.168C57.1198 235.054 56.9271 234.952 56.7031 234.863C56.4844 234.77 56.2474 234.673 55.9922 234.574C55.638 234.434 55.3255 234.293 55.0547 234.152C54.7891 234.007 54.5651 233.845 54.3828 233.668C54.2057 233.486 54.0703 233.28 53.9766 233.051C53.888 232.822 53.8438 232.554 53.8438 232.246C53.8438 231.871 53.9297 231.54 54.1016 231.254C54.2734 230.962 54.5026 230.72 54.7891 230.527C55.0755 230.33 55.401 230.181 55.7656 230.082C56.1354 229.983 56.5156 229.934 56.9062 229.934C57.599 229.934 58.2188 230.054 58.7656 230.293V231.59C58.1771 231.205 57.5 231.012 56.7344 231.012C56.4948 231.012 56.2786 231.04 56.0859 231.098C55.8932 231.15 55.7266 231.225 55.5859 231.324C55.4505 231.423 55.3438 231.543 55.2656 231.684C55.1927 231.819 55.1562 231.97 55.1562 232.137C55.1562 232.345 55.1927 232.52 55.2656 232.66C55.3438 232.801 55.4557 232.926 55.6016 233.035C55.7474 233.145 55.9245 233.244 56.1328 233.332C56.3411 233.421 56.5781 233.517 56.8438 233.621C57.1979 233.757 57.5156 233.897 57.7969 234.043C58.0781 234.184 58.3177 234.345 58.5156 234.527C58.7135 234.705 58.8646 234.91 58.9688 235.145C59.0781 235.379 59.1328 235.658 59.1328 235.981C59.1328 236.376 59.0443 236.72 58.8672 237.012C58.6953 237.304 58.4635 237.546 58.1719 237.738C57.8802 237.931 57.5443 238.074 57.1641 238.168C56.7839 238.262 56.3854 238.309 55.9688 238.309C55.1458 238.309 54.4323 238.15 53.8281 237.832ZM66.5625 237.754C65.9479 238.124 65.2188 238.309 64.375 238.309C63.2344 238.309 62.3125 237.939 61.6094 237.199C60.9115 236.455 60.5625 235.491 60.5625 234.309C60.5625 232.991 60.9401 231.934 61.6953 231.137C62.4505 230.335 63.4583 229.934 64.7188 229.934C65.4219 229.934 66.0417 230.064 66.5781 230.324V231.637C65.9844 231.22 65.349 231.012 64.6719 231.012C63.8542 231.012 63.1823 231.306 62.6562 231.895C62.1354 232.478 61.875 233.246 61.875 234.199C61.875 235.137 62.1198 235.876 62.6094 236.418C63.1042 236.96 63.7656 237.231 64.5938 237.231C65.2917 237.231 65.9479 236.999 66.5625 236.535V237.754ZM75.1406 238.121H73.8594V233.512C73.8594 231.845 73.2396 231.012 72 231.012C71.375 231.012 70.849 231.254 70.4219 231.738C69.9948 232.218 69.7812 232.835 69.7812 233.59V238.121H68.5V226.277H69.7812V231.449H69.8125C70.4271 230.439 71.3021 229.934 72.4375 229.934C74.2396 229.934 75.1406 231.02 75.1406 233.192V238.121ZM83.9922 234.442H78.3438C78.3646 235.332 78.6042 236.02 79.0625 236.504C79.5208 236.988 80.151 237.231 80.9531 237.231C81.8542 237.231 82.6823 236.934 83.4375 236.34V237.543C82.7344 238.054 81.8047 238.309 80.6484 238.309C79.5182 238.309 78.6302 237.947 77.9844 237.223C77.3385 236.494 77.0156 235.47 77.0156 234.152C77.0156 232.908 77.3672 231.895 78.0703 231.113C78.7786 230.327 79.6562 229.934 80.7031 229.934C81.75 229.934 82.5599 230.272 83.1328 230.949C83.7057 231.626 83.9922 232.567 83.9922 233.77V234.442ZM82.6797 233.356C82.6745 232.616 82.4948 232.04 82.1406 231.629C81.7917 231.218 81.3047 231.012 80.6797 231.012C80.0755 231.012 79.5625 231.228 79.1406 231.66C78.7188 232.093 78.4583 232.658 78.3594 233.356H82.6797ZM92.7656 238.121H91.4844V236.762H91.4531C90.8594 237.793 89.9427 238.309 88.7031 238.309C87.6979 238.309 86.8932 237.952 86.2891 237.238C85.6901 236.52 85.3906 235.543 85.3906 234.309C85.3906 232.986 85.724 231.926 86.3906 231.129C87.0573 230.332 87.9453 229.934 89.0547 229.934C90.1536 229.934 90.9531 230.366 91.4531 231.231H91.4844V226.277H92.7656V238.121ZM91.4844 234.504V233.324C91.4844 232.679 91.2708 232.132 90.8438 231.684C90.4167 231.236 89.875 231.012 89.2188 231.012C88.4375 231.012 87.8229 231.298 87.375 231.871C86.9271 232.444 86.7031 233.236 86.7031 234.246C86.7031 235.168 86.9167 235.897 87.3438 236.434C87.776 236.965 88.3542 237.231 89.0781 237.231C89.7917 237.231 90.3698 236.973 90.8125 236.457C91.2604 235.942 91.4844 235.29 91.4844 234.504ZM101.828 238.121H100.547V236.856H100.516C99.9844 237.824 99.1615 238.309 98.0469 238.309C96.1406 238.309 95.1875 237.173 95.1875 234.902V230.121H96.4609V234.699C96.4609 236.387 97.1068 237.231 98.3984 237.231C99.0234 237.231 99.5365 237.001 99.9375 236.543C100.344 236.08 100.547 235.475 100.547 234.731V230.121H101.828V238.121ZM105.703 238.121H104.422V226.277H105.703V238.121ZM114.727 234.442H109.078C109.099 235.332 109.339 236.02 109.797 236.504C110.255 236.988 110.885 237.231 111.688 237.231C112.589 237.231 113.417 236.934 114.172 236.34V237.543C113.469 238.054 112.539 238.309 111.383 238.309C110.253 238.309 109.365 237.947 108.719 237.223C108.073 236.494 107.75 235.47 107.75 234.152C107.75 232.908 108.102 231.895 108.805 231.113C109.513 230.327 110.391 229.934 111.438 229.934C112.484 229.934 113.294 230.272 113.867 230.949C114.44 231.626 114.727 232.567 114.727 233.77V234.442ZM113.414 233.356C113.409 232.616 113.229 232.04 112.875 231.629C112.526 231.218 112.039 231.012 111.414 231.012C110.81 231.012 110.297 231.228 109.875 231.66C109.453 232.093 109.193 232.658 109.094 233.356H113.414ZM127.891 238.121H126.609V236.762H126.578C125.984 237.793 125.068 238.309 123.828 238.309C122.823 238.309 122.018 237.952 121.414 237.238C120.815 236.52 120.516 235.543 120.516 234.309C120.516 232.986 120.849 231.926 121.516 231.129C122.182 230.332 123.07 229.934 124.18 229.934C125.279 229.934 126.078 230.366 126.578 231.231H126.609V226.277H127.891V238.121ZM126.609 234.504V233.324C126.609 232.679 126.396 232.132 125.969 231.684C125.542 231.236 125 231.012 124.344 231.012C123.562 231.012 122.948 231.298 122.5 231.871C122.052 232.444 121.828 233.236 121.828 234.246C121.828 235.168 122.042 235.897 122.469 236.434C122.901 236.965 123.479 237.231 124.203 237.231C124.917 237.231 125.495 236.973 125.938 236.457C126.385 235.942 126.609 235.29 126.609 234.504ZM136.211 238.121H134.93V236.871H134.898C134.341 237.83 133.521 238.309 132.438 238.309C131.641 238.309 131.016 238.098 130.562 237.676C130.115 237.254 129.891 236.694 129.891 235.996C129.891 234.501 130.771 233.632 132.531 233.387L134.93 233.051C134.93 231.692 134.38 231.012 133.281 231.012C132.318 231.012 131.448 231.34 130.672 231.996V230.684C131.458 230.184 132.365 229.934 133.391 229.934C135.271 229.934 136.211 230.929 136.211 232.918V238.121ZM134.93 234.074L133 234.34C132.406 234.423 131.958 234.572 131.656 234.785C131.354 234.994 131.203 235.366 131.203 235.902C131.203 236.293 131.341 236.613 131.617 236.863C131.898 237.108 132.271 237.231 132.734 237.231C133.37 237.231 133.893 237.009 134.305 236.567C134.721 236.119 134.93 235.554 134.93 234.871V234.074ZM142.336 238.043C142.034 238.21 141.635 238.293 141.141 238.293C139.74 238.293 139.039 237.512 139.039 235.949V231.215H137.664V230.121H139.039V228.168L140.32 227.754V230.121H142.336V231.215H140.32V235.723C140.32 236.259 140.411 236.642 140.594 236.871C140.776 237.1 141.078 237.215 141.5 237.215C141.823 237.215 142.102 237.126 142.336 236.949V238.043ZM150.477 234.442H144.828C144.849 235.332 145.089 236.02 145.547 236.504C146.005 236.988 146.635 237.231 147.438 237.231C148.339 237.231 149.167 236.934 149.922 236.34V237.543C149.219 238.054 148.289 238.309 147.133 238.309C146.003 238.309 145.115 237.947 144.469 237.223C143.823 236.494 143.5 235.47 143.5 234.152C143.5 232.908 143.852 231.895 144.555 231.113C145.263 230.327 146.141 229.934 147.188 229.934C148.234 229.934 149.044 230.272 149.617 230.949C150.19 231.626 150.477 232.567 150.477 233.77V234.442ZM149.164 233.356C149.159 232.616 148.979 232.04 148.625 231.629C148.276 231.218 147.789 231.012 147.164 231.012C146.56 231.012 146.047 231.228 145.625 231.66C145.203 232.093 144.943 232.658 144.844 233.356H149.164ZM162.539 238.121H161.258V236.871H161.227C160.669 237.83 159.849 238.309 158.766 238.309C157.969 238.309 157.344 238.098 156.891 237.676C156.443 237.254 156.219 236.694 156.219 235.996C156.219 234.501 157.099 233.632 158.859 233.387L161.258 233.051C161.258 231.692 160.708 231.012 159.609 231.012C158.646 231.012 157.776 231.34 157 231.996V230.684C157.786 230.184 158.693 229.934 159.719 229.934C161.599 229.934 162.539 230.929 162.539 232.918V238.121ZM161.258 234.074L159.328 234.34C158.734 234.423 158.286 234.572 157.984 234.785C157.682 234.994 157.531 235.366 157.531 235.902C157.531 236.293 157.669 236.613 157.945 236.863C158.227 237.108 158.599 237.231 159.062 237.231C159.698 237.231 160.221 237.009 160.633 236.567C161.049 236.119 161.258 235.554 161.258 234.871V234.074ZM171.594 238.121H170.312V233.559C170.312 231.861 169.693 231.012 168.453 231.012C167.812 231.012 167.281 231.254 166.859 231.738C166.443 232.218 166.234 232.824 166.234 233.559V238.121H164.953V230.121H166.234V231.449H166.266C166.87 230.439 167.745 229.934 168.891 229.934C169.766 229.934 170.435 230.218 170.898 230.785C171.362 231.348 171.594 232.163 171.594 233.231V238.121ZM180.844 238.121H179.562V236.762H179.531C178.938 237.793 178.021 238.309 176.781 238.309C175.776 238.309 174.971 237.952 174.367 237.238C173.768 236.52 173.469 235.543 173.469 234.309C173.469 232.986 173.802 231.926 174.469 231.129C175.135 230.332 176.023 229.934 177.133 229.934C178.232 229.934 179.031 230.366 179.531 231.231H179.562V226.277H180.844V238.121ZM179.562 234.504V233.324C179.562 232.679 179.349 232.132 178.922 231.684C178.495 231.236 177.953 231.012 177.297 231.012C176.516 231.012 175.901 231.298 175.453 231.871C175.005 232.444 174.781 233.236 174.781 234.246C174.781 235.168 174.995 235.897 175.422 236.434C175.854 236.965 176.432 237.231 177.156 237.231C177.87 237.231 178.448 236.973 178.891 236.457C179.339 235.942 179.562 235.29 179.562 234.504ZM191.539 238.043C191.237 238.21 190.839 238.293 190.344 238.293C188.943 238.293 188.242 237.512 188.242 235.949V231.215H186.867V230.121H188.242V228.168L189.523 227.754V230.121H191.539V231.215H189.523V235.723C189.523 236.259 189.615 236.642 189.797 236.871C189.979 237.1 190.281 237.215 190.703 237.215C191.026 237.215 191.305 237.126 191.539 236.949V238.043ZM193.906 228.09C193.677 228.09 193.482 228.012 193.32 227.856C193.159 227.699 193.078 227.501 193.078 227.262C193.078 227.022 193.159 226.824 193.32 226.668C193.482 226.507 193.677 226.426 193.906 226.426C194.141 226.426 194.339 226.507 194.5 226.668C194.667 226.824 194.75 227.022 194.75 227.262C194.75 227.491 194.667 227.686 194.5 227.848C194.339 228.009 194.141 228.09 193.906 228.09ZM194.531 238.121H193.25V230.121H194.531V238.121ZM208.484 238.121H207.203V233.527C207.203 232.642 207.065 232.001 206.789 231.606C206.518 231.21 206.06 231.012 205.414 231.012C204.867 231.012 204.401 231.262 204.016 231.762C203.635 232.262 203.445 232.861 203.445 233.559V238.121H202.164V233.371C202.164 231.798 201.557 231.012 200.344 231.012C199.781 231.012 199.318 231.249 198.953 231.723C198.589 232.192 198.406 232.804 198.406 233.559V238.121H197.125V230.121H198.406V231.387H198.438C199.005 230.418 199.833 229.934 200.922 229.934C201.469 229.934 201.945 230.087 202.352 230.395C202.758 230.697 203.036 231.095 203.188 231.59C203.781 230.486 204.667 229.934 205.844 229.934C207.604 229.934 208.484 231.02 208.484 233.192V238.121ZM217.336 234.442H211.688C211.708 235.332 211.948 236.02 212.406 236.504C212.865 236.988 213.495 237.231 214.297 237.231C215.198 237.231 216.026 236.934 216.781 236.34V237.543C216.078 238.054 215.148 238.309 213.992 238.309C212.862 238.309 211.974 237.947 211.328 237.223C210.682 236.494 210.359 235.47 210.359 234.152C210.359 232.908 210.711 231.895 211.414 231.113C212.122 230.327 213 229.934 214.047 229.934C215.094 229.934 215.904 230.272 216.477 230.949C217.049 231.626 217.336 232.567 217.336 233.77V234.442ZM216.023 233.356C216.018 232.616 215.839 232.04 215.484 231.629C215.135 231.218 214.648 231.012 214.023 231.012C213.419 231.012 212.906 231.228 212.484 231.66C212.062 232.093 211.802 232.658 211.703 233.356H216.023Z" fill="#A5A5A6"/>
<defs>
<clipPath id="clip0_1_6638">
<rect width="271" height="181.121" fill="white"/>
</clipPath>
</defs>
</svg>
